<svg xmlns:xlink="http://www.w3.org/1999/xlink" viewBox="23.029315200000003 11.921043199999998 38.607969600000004 23.5711536" style="max-height: 500px" xml:space="preserve" xmlns="http://www.w3.org/2000/svg" width="38.607969600000004" height="23.5711536">
 <defs>
  <style type="text/css">
   
    .fil2 {fill:black}
    .fil3 {fill:#5BCFFA}
    .fil4 {fill:#F5ABB9}
    .fil0 {fill:white}
    .fil1 {fill:black;fill-rule:nonzero}
   
  </style>
 </defs>
 <g id="Layer-1">
  <metadata id="CorelCorpID_0Corel-Layer"/>
  <polygon points="-0,0 84.6666,0 84.6666,67.7332 -0,67.7332" class="fil0"/>
 </g>
 <g id="Layer-2">
  <metadata id="CorelCorpID_1Corel-Layer"/>
  <path d="M6.4892 45.5916c0,0.3413 0,0.6605 -0.0018,0.9614 -0.0019,0.2989 -0.0073,0.5665 -0.0148,0.8046 -0.0074,0.2381 -0.0202,0.4355 -0.0387,0.5924 -0.0129,0.107 -0.0314,0.2048 -0.0535,0.2897 -0.0222,0.0867 -0.0535,0.1569 -0.096,0.2122 -0.0406,0.0554 -0.0978,0.0923 -0.1716,0.107 -0.0498,0.0111 -0.107,0.0221 -0.1735,0.0314 -0.0664,0.0074 -0.1421,0.013 -0.2251,0.013 -0.0646,0 -0.1108,0.0073 -0.1385,0.0239 -0.0258,0.0147 -0.0386,0.037 -0.0386,0.0647 0,0.0386 0.0184,0.0663 0.0572,0.0848 0.0368,0.0166 0.0922,0.0258 0.1642,0.0258 0.1125,-0.0018 0.2362,-0.0055 0.3691,-0.0111 0.1347,-0.0074 0.2657,-0.011 0.3948,-0.011 0.1348,-0.0055 0.2584,-0.0092 0.3692,-0.0092 0.1125,-0.0019 0.1993,-0.0019 0.262,-0.0019 0.0572,0 0.1273,0.0019 0.2158,0.0037 0.0868,0.0019 0.1828,0.0056 0.288,0.011 0.107,0.0056 0.214,0.0111 0.3267,0.0185 0.1088,0.0038 0.2121,0.0075 0.3136,0.0129 0.1015,0.0056 0.1919,0.0093 0.2732,0.0148 0.0793,0.0037 0.1421,0.0056 0.1882,0.0056 0.4078,-0.0019 0.7713,-0.0481 1.0906,-0.1367 0.3192,-0.0904 0.5961,-0.2139 0.8304,-0.3727 0.2344,-0.1569 0.4281,-0.3376 0.5813,-0.5426 0.1532,-0.2048 0.2676,-0.4243 0.3415,-0.655 0.0756,-0.2325 0.1125,-0.4687 0.1125,-0.7068 -0.0018,-0.2584 -0.0425,-0.4982 -0.1218,-0.716 -0.0812,-0.2197 -0.1883,-0.4171 -0.3266,-0.5961 -0.1366,-0.179 -0.2916,-0.3377 -0.4651,-0.4762 -0.1734,-0.1402 -0.3543,-0.2601 -0.5425,-0.3597 -0.1901,-0.1016 -0.3765,-0.1809 -0.5592,-0.2436 0.2067,-0.1606 0.3931,-0.3322 0.5629,-0.5168 0.1716,-0.1845 0.3063,-0.393 0.4096,-0.6237 0.1016,-0.2307 0.1551,-0.4964 0.1569,-0.7972 0.0019,-0.1199 -0.0165,-0.2529 -0.0535,-0.3987 -0.0369,-0.1457 -0.1034,-0.2915 -0.1993,-0.4391 -0.0959,-0.1477 -0.2326,-0.2842 -0.4097,-0.4079 -0.1772,-0.1236 -0.4041,-0.2232 -0.6809,-0.2989 -0.2768,-0.0756 -0.6165,-0.1144 -1.015,-0.1163 -0.1864,0.0019 -0.3913,0.0074 -0.6127,0.0167 -0.2215,0.0091 -0.4687,0.0147 -0.7381,0.0165 -0.0572,0 -0.1384,-0.0018 -0.2455,-0.0055 -0.107,-0.0037 -0.2306,-0.0074 -0.3709,-0.011 -0.1383,-0.0037 -0.2842,-0.0093 -0.4373,-0.0111 -0.1532,-0.0037 -0.3045,-0.0056 -0.4522,-0.0056 -0.083,-0.0018 -0.1439,0.0056 -0.1845,0.0203 -0.0387,0.0148 -0.0591,0.0406 -0.0591,0.0794 0,0.0368 0.0167,0.0646 0.0481,0.0793 0.0332,0.013 0.0793,0.0203 0.1402,0.0203 0.0811,0 0.1605,0.0018 0.2417,0.0074 0.0794,0.0056 0.144,0.0148 0.1901,0.0258 0.1199,0.024 0.2141,0.0628 0.2805,0.1144 0.0664,0.0499 0.1144,0.1181 0.1439,0.203 0.0277,0.0831 0.0461,0.1883 0.0517,0.3138 0.0037,0.0682 0.0074,0.1421 0.0111,0.2177 0.0019,0.0776 0.0056,0.1698 0.0073,0.2768 0,0.107 0.0019,0.2418 0.0019,0.4004 0.0018,0.1606 0.0018,0.3599 0.0018,0.5961 0,0.2362 0,0.5222 0,0.8563l0 1.9488zm34.3672 2.1036c-0.0166,0.1274 -0.0424,0.2548 -0.0738,0.3803 -0.0314,0.1235 -0.0775,0.2325 -0.1365,0.3229 -0.061,0.0886 -0.1421,0.1477 -0.2437,0.1716 -0.0811,0.0166 -0.1458,0.0259 -0.1955,0.0296 -0.0481,0.0037 -0.0942,0.0037 -0.1367,0.0037 -0.0553,0 -0.0996,0.0054 -0.1291,0.0184 -0.0314,0.0111 -0.048,0.0314 -0.048,0.059 0.0018,0.048 0.0203,0.0812 0.059,0.0979 0.037,0.0165 0.0832,0.0258 0.1404,0.0239 0.0904,0 0.1863,-0.0018 0.2915,-0.0055 0.1033,-0.0037 0.2086,-0.0074 0.31,-0.0111 0.1034,-0.0036 0.1974,-0.0073 0.2843,-0.011 0.0867,-0.0037 0.1567,-0.0056 0.2102,-0.0056 0.0683,0 0.1643,0.0037 0.2862,0.0093 0.1235,0.0054 0.2601,0.0091 0.4133,0.0147 0.1512,0.0055 0.3063,0.0092 0.4632,0.0092 0.083,0.0019 0.1495,-0.0074 0.1956,-0.0239 0.0462,-0.0167 0.0701,-0.0499 0.0701,-0.0979 -0.0018,-0.0276 -0.0185,-0.0479 -0.0498,-0.059 -0.0313,-0.013 -0.0701,-0.0184 -0.1162,-0.0184 -0.0555,0 -0.1218,-0.0037 -0.1994,-0.0111 -0.0775,-0.0075 -0.1661,-0.0222 -0.2657,-0.0443 -0.0959,-0.0204 -0.1754,-0.059 -0.2363,-0.1145 -0.0627,-0.0553 -0.094,-0.1365 -0.0958,-0.2398 0,-0.0868 0.0036,-0.1699 0.0091,-0.251 0.0056,-0.0812 0.013,-0.1716 0.024,-0.2695l0.5758 -4.3182 0.0442 0c0.0795,0.1679 0.1643,0.3488 0.2585,0.5425 0.094,0.1939 0.19,0.3894 0.286,0.5833 0.096,0.1955 0.1864,0.3783 0.2713,0.548 0.083,0.1716 0.1549,0.3174 0.2158,0.4392 0.0591,0.1218 0.0997,0.2085 0.12,0.2565 0.0239,0.0536 0.0646,0.1403 0.1218,0.2584 0.059,0.1181 0.1274,0.2583 0.2085,0.417 0.0812,0.1606 0.1661,0.3285 0.2565,0.5075 0.0904,0.1771 0.1809,0.3506 0.2676,0.5222 0.0886,0.1699 0.168,0.3266 0.2418,0.467 0.0738,0.1402 0.1329,0.2546 0.1771,0.3413 0.0868,0.1679 0.1625,0.3027 0.2233,0.4004 0.0609,0.0997 0.1163,0.1514 0.1643,0.1532 0.0314,0.0019 0.0627,-0.0128 0.0941,-0.0442 0.0314,-0.0332 0.0701,-0.0941 0.1181,-0.1846 0.048,-0.0885 0.1144,-0.2196 0.1974,-0.3912l2.4138 -4.9383 0.0444 0 0.6643 4.8165c0.0221,0.155 0.0258,0.2694 0.0147,0.347 -0.0129,0.0756 -0.035,0.1199 -0.0701,0.1291 -0.0388,0.0167 -0.0683,0.0332 -0.0904,0.0535 -0.0203,0.0185 -0.0314,0.0406 -0.0314,0.0683 -0.0019,0.0332 0.0203,0.0591 0.0646,0.0776 0.0461,0.0184 0.1328,0.0331 0.2565,0.0442 0.0756,0.0056 0.1753,0.0111 0.3008,0.0147 0.1255,0.0056 0.2639,0.0111 0.4171,0.0148 0.1531,0.0037 0.31,0.0075 0.4687,0.0112 0.1586,0.0018 0.31,0.0054 0.4539,0.0073 0.1439,0.0018 0.2694,0.0037 0.3766,0.0055 0.1051,0.0019 0.1826,0.0019 0.2306,0.0019 0.0793,0 0.1476,-0.0093 0.203,-0.0277 0.0535,-0.0184 0.083,-0.0498 0.0849,-0.0941 0,-0.0314 -0.0184,-0.0535 -0.0517,-0.0628 -0.0314,-0.011 -0.0739,-0.0147 -0.1255,-0.0147 -0.072,0.0018 -0.1642,-0.0037 -0.2768,-0.0184 -0.1126,-0.013 -0.2491,-0.0444 -0.4097,-0.0923 -0.1089,-0.0314 -0.1974,-0.0923 -0.2658,-0.179 -0.0682,-0.0867 -0.1236,-0.2086 -0.166,-0.3617 -0.0406,-0.1532 -0.0793,-0.3451 -0.1107,-0.5776l-1.0076 -6.7763c-0.0167,-0.1163 -0.0406,-0.203 -0.0739,-0.2583 -0.0331,-0.0574 -0.0756,-0.085 -0.1254,-0.085 -0.048,0 -0.0904,0.0222 -0.1255,0.0664 -0.0351,0.0444 -0.0756,0.1107 -0.1181,0.1993l-3.0117 6.2338 -3.0227 -6.1562c-0.048,-0.0941 -0.0886,-0.168 -0.1218,-0.2178 -0.0333,-0.0498 -0.0647,-0.083 -0.0923,-0.1014 -0.0277,-0.0167 -0.0554,-0.026 -0.0849,-0.0241 -0.0442,0 -0.083,0.0241 -0.1144,0.0738 -0.0332,0.048 -0.0572,0.12 -0.0739,0.2141l-1.0961 7.1305zm15.7002 -1.7161c0.0278,0 0.0499,0.0056 0.0683,0.0184 0.0167,0.0111 0.0314,0.0314 0.0425,0.0591l0.8858 2.2809c0.0258,0.0682 0.0258,0.1236 0,0.1698 -0.0241,0.0442 -0.0572,0.0737 -0.0997,0.0849 -0.0553,0.0055 -0.0941,0.0148 -0.1181,0.0295 -0.0258,0.0148 -0.0369,0.0369 -0.0369,0.0702 0.0018,0.0368 0.0314,0.059 0.0923,0.0682 0.059,0.0092 0.1383,0.0166 0.2399,0.0203 0.2971,0.0073 0.5794,0.0129 0.847,0.0147 0.2676,0.0037 0.5094,0.0056 0.7235,0.0056 0.2121,0.0018 0.3874,0.0018 0.5222,0.0018 0.1346,0 0.2399,-0.0037 0.3136,-0.0092 0.0739,-0.0056 0.1256,-0.0166 0.1551,-0.0332 0.0277,-0.0166 0.0425,-0.0387 0.0406,-0.0682 0,-0.037 -0.0129,-0.0628 -0.0388,-0.0739 -0.0258,-0.011 -0.0609,-0.0166 -0.1051,-0.0147 -0.0665,0 -0.1403,-0.0037 -0.2196,-0.0093 -0.0794,-0.0074 -0.1625,-0.0184 -0.2455,-0.0351 -0.0572,-0.011 -0.1218,-0.0351 -0.1919,-0.0719 -0.0683,-0.0351 -0.1439,-0.096 -0.2252,-0.179 -0.0812,-0.0831 -0.1679,-0.2012 -0.2602,-0.3543 -0.0923,-0.1532 -0.1918,-0.3543 -0.2971,-0.6017 -0.0886,-0.2122 -0.1919,-0.4613 -0.31,-0.7473 -0.1181,-0.2861 -0.2455,-0.5942 -0.3801,-0.9264 -0.1366,-0.3341 -0.2769,-0.6773 -0.4208,-1.0316 -0.1439,-0.3543 -0.286,-0.7068 -0.4281,-1.0574 -0.1422,-0.3506 -0.2787,-0.6865 -0.4079,-1.0076 -0.131,-0.3211 -0.2491,-0.6145 -0.3579,-0.8802 -0.1071,-0.2658 -0.1994,-0.4909 -0.275,-0.6754 -0.0775,-0.1846 -0.1311,-0.3174 -0.1661,-0.395 -0.0536,-0.1254 -0.1015,-0.2177 -0.1422,-0.273 -0.0423,-0.0554 -0.0867,-0.0832 -0.1346,-0.0813 -0.0535,-0.0019 -0.1016,0.0313 -0.1458,0.1015 -0.0461,0.0683 -0.0997,0.1827 -0.1642,0.3414l-2.7792 6.8648c-0.072,0.1846 -0.1476,0.3488 -0.2288,0.4891 -0.0813,0.1421 -0.179,0.2565 -0.2916,0.3433 -0.1126,0.0867 -0.2528,0.142 -0.4207,0.1641 -0.0462,0.0056 -0.1034,0.0112 -0.1679,0.0149 -0.0646,0.0055 -0.1237,0.0074 -0.1753,0.0074 -0.0444,0 -0.0776,0.0054 -0.0997,0.0202 -0.0222,0.013 -0.0333,0.0351 -0.0333,0.0684 0,0.0423 0.0167,0.0719 0.0517,0.0885 0.0332,0.0147 0.0867,0.0221 0.1587,0.0221 0.1458,0 0.2879,-0.0018 0.4299,-0.0055 0.1421,-0.0037 0.2732,-0.0074 0.3932,-0.0111 0.1218,-0.0036 0.2251,-0.0073 0.3082,-0.011 0.0849,-0.0037 0.1439,-0.0056 0.1753,-0.0056 0.1163,0 0.2417,0.0037 0.3783,0.0093 0.1365,0.0054 0.273,0.0091 0.4097,0.0147 0.1383,0.0055 0.2657,0.0092 0.3857,0.0092 0.0609,0 0.1069,-0.0074 0.1402,-0.0221 0.0314,-0.0166 0.0479,-0.0462 0.0479,-0.0885 0.0019,-0.0333 -0.0091,-0.0554 -0.0332,-0.0684 -0.024,-0.0148 -0.0682,-0.0202 -0.1328,-0.0202l-0.1661 0c-0.168,-0.0019 -0.2861,-0.0333 -0.3507,-0.096 -0.0645,-0.0628 -0.0959,-0.1458 -0.0922,-0.2473 0,-0.0682 0.0147,-0.1642 0.0424,-0.2842 0.0277,-0.12 0.0683,-0.251 0.1237,-0.3913l0.5979 -1.5168c0.011,-0.0332 0.0221,-0.0554 0.0368,-0.0702 0.0149,-0.0128 0.0351,-0.0184 0.0628,-0.0184l2.4691 0zm-2.2476 -0.5536c-0.0221,0 -0.0369,-0.0074 -0.0425,-0.0222 -0.0074,-0.0147 -0.0074,-0.0332 -0.0018,-0.0554l1.0187 -2.7127c0.0054,-0.024 0.0147,-0.0461 0.0258,-0.0664 0.011,-0.0203 0.024,-0.0313 0.0405,-0.0332 0.0167,0.0019 0.0277,0.0129 0.037,0.0332 0.0074,0.0203 0.0129,0.0424 0.0185,0.0664l0.9965 2.7239c0.0055,0.0165 0.0055,0.0332 -0.0019,0.046 -0.0092,0.013 -0.0258,0.0204 -0.0535,0.0204l-2.0373 0zm7.5288 0.1661c0,0.3413 0,0.6605 -0.0018,0.9614 -0.0019,0.2989 -0.0073,0.5665 -0.0147,0.8046 -0.0074,0.2381 -0.0203,0.4355 -0.0388,0.5924 -0.0129,0.107 -0.0314,0.2048 -0.0535,0.2915 -0.0221,0.0849 -0.0535,0.1569 -0.096,0.2104 -0.0405,0.0554 -0.0977,0.0923 -0.1716,0.107 -0.0498,0.0111 -0.107,0.0221 -0.1735,0.0314 -0.0664,0.0074 -0.142,0.013 -0.2251,0.013 -0.0646,0 -0.1108,0.0073 -0.1384,0.0239 -0.0259,0.0147 -0.0387,0.037 -0.0387,0.0647 0,0.0386 0.0184,0.0663 0.0572,0.0848 0.0368,0.0166 0.0923,0.0258 0.1642,0.0258 0.1125,0 0.2362,-0.0018 0.3691,-0.0055 0.1328,-0.0037 0.2639,-0.0074 0.393,-0.0111 0.1311,-0.0036 0.2473,-0.0073 0.3506,-0.011 0.1053,-0.0037 0.1846,-0.0056 0.2381,-0.0056 0.0443,0 0.1218,0.0019 0.2343,0.0056 0.1126,0.0037 0.2455,0.0074 0.4006,0.011 0.1549,0.0037 0.3192,0.0074 0.4908,0.0111 0.1716,0.0037 0.3396,0.0055 0.502,0.0055 0.072,0 0.1273,-0.0092 0.1641,-0.0258 0.0388,-0.0185 0.0572,-0.0462 0.0572,-0.0848 0,-0.0277 -0.011,-0.05 -0.0331,-0.0647 -0.0222,-0.0166 -0.0554,-0.0239 -0.0997,-0.0239 -0.0461,0 -0.0997,-0.0019 -0.1623,-0.0056 -0.0628,-0.0055 -0.1292,-0.0111 -0.1957,-0.0167 -0.0665,-0.0073 -0.1274,-0.0147 -0.1846,-0.0221 -0.1088,-0.0147 -0.1937,-0.0516 -0.2527,-0.107 -0.0591,-0.0535 -0.0997,-0.1255 -0.1256,-0.2104 -0.0258,-0.0867 -0.0442,-0.1845 -0.0534,-0.2915 -0.0185,-0.1569 -0.0314,-0.3543 -0.0388,-0.5924 -0.0073,-0.2381 -0.0129,-0.5075 -0.0147,-0.8083 -0.0019,-0.3007 -0.0019,-0.6237 -0.0019,-0.9689l0 -0.1549c0,-0.0332 0.0074,-0.0554 0.024,-0.0702 0.0148,-0.0129 0.0369,-0.0184 0.0646,-0.0184l0.9632 0.0222c0.0388,-0.0019 0.0758,0.0037 0.109,0.0128 0.0331,0.0111 0.0626,0.0314 0.0903,0.0646 0.037,0.0425 0.0942,0.1181 0.1699,0.2234 0.0756,0.1051 0.1642,0.2306 0.2657,0.3746 0.1015,0.1439 0.2104,0.2971 0.323,0.4576 0.1125,0.1606 0.2269,0.3175 0.3376,0.4724 0.2048,0.2843 0.3931,0.5315 0.5629,0.7437 0.1697,0.2123 0.3322,0.3931 0.4872,0.5389 0.1549,0.1458 0.31,0.2602 0.4669,0.3451 0.0941,0.0516 0.1937,0.0922 0.2971,0.1236 0.1051,0.0314 0.227,0.0535 0.369,0.0665 0.1421,0.0128 0.3137,0.0202 0.5187,0.0202l1.0518 0c0.0665,0 0.1181,-0.0074 0.155,-0.0221 0.0369,-0.0166 0.0554,-0.0462 0.0554,-0.0885 0,-0.0277 -0.0111,-0.05 -0.0332,-0.0647 -0.0222,-0.0166 -0.0554,-0.0239 -0.0997,-0.0239 -0.0443,0 -0.0923,-0.0019 -0.1421,-0.0074 -0.0517,-0.0056 -0.107,-0.0149 -0.1679,-0.0259 -0.0425,-0.0074 -0.1016,-0.0203 -0.1772,-0.0406 -0.0757,-0.0221 -0.1661,-0.0572 -0.2731,-0.107 -0.1052,-0.0516 -0.2251,-0.1255 -0.358,-0.2215 -0.1329,-0.0959 -0.2768,-0.2251 -0.4318,-0.3838 -0.3248,-0.3451 -0.6828,-0.7603 -1.076,-1.2493 -0.3948,-0.4873 -0.8358,-1.0427 -1.3268,-1.6628 0.371,-0.3008 0.6626,-0.5886 0.8767,-0.8635 0.2139,-0.2769 0.3653,-0.5463 0.4539,-0.8121 0.0904,-0.2639 0.1329,-0.5333 0.131,-0.8046 -0.0018,-0.1863 -0.0258,-0.3598 -0.0738,-0.5204 -0.048,-0.1604 -0.1107,-0.3062 -0.1864,-0.4373 -0.0757,-0.1311 -0.1569,-0.2436 -0.2436,-0.3378 -0.0867,-0.094 -0.1697,-0.1679 -0.2492,-0.2214 -0.2011,-0.1346 -0.4133,-0.2362 -0.6384,-0.3063 -0.2251,-0.0682 -0.4559,-0.1144 -0.6938,-0.1384 -0.2363,-0.0221 -0.4706,-0.0332 -0.705,-0.0314 -0.0886,0 -0.1994,0.0019 -0.3359,0.0056 -0.1348,0.0018 -0.2787,0.0074 -0.4318,0.0111 -0.1532,0.0036 -0.2989,0.0073 -0.4393,0.011 -0.1402,0.0037 -0.2583,0.0055 -0.3542,0.0055 -0.059,0 -0.144,-0.0018 -0.2529,-0.0055 -0.1088,-0.0037 -0.2325,-0.0074 -0.3727,-0.011 -0.1402,-0.0037 -0.2861,-0.0093 -0.4392,-0.0111 -0.1532,-0.0037 -0.3045,-0.0056 -0.4522,-0.0056 -0.083,-0.0018 -0.1439,0.0056 -0.1845,0.0203 -0.0387,0.0148 -0.0591,0.0406 -0.0591,0.0794 0,0.0368 0.0167,0.0646 0.0481,0.0793 0.0332,0.013 0.0793,0.0203 0.1402,0.0203 0.0812,0 0.1605,0.0018 0.2418,0.0074 0.0793,0.0056 0.1439,0.0148 0.19,0.0258 0.1199,0.024 0.2141,0.0628 0.2805,0.1144 0.0664,0.0499 0.1144,0.1181 0.144,0.203 0.0276,0.0831 0.046,0.1883 0.0516,0.3138 0.0037,0.0682 0.0074,0.1421 0.0111,0.2177 0.0019,0.0776 0.0056,0.1698 0.0073,0.2768 0,0.107 0.0019,0.2418 0.0019,0.4004 0.0018,0.1606 0.0018,0.3599 0.0018,0.5961 0,0.2362 0,0.5222 0,0.8563l0 1.9488zm1.3066 -4.44c0,-0.0444 0.0056,-0.0776 0.0203,-0.1034 0.0148,-0.024 0.0406,-0.0406 0.0794,-0.0517 0.0553,-0.0165 0.1328,-0.0277 0.2307,-0.0351 0.0995,-0.0074 0.2176,-0.0092 0.3561,-0.0092 0.1328,-0.0018 0.2749,0.0185 0.4263,0.059 0.1531,0.0407 0.3026,0.109 0.4521,0.2013 0.1495,0.0921 0.2842,0.2177 0.4078,0.3727 0.1218,0.1569 0.2214,0.3488 0.2953,0.5794 0.0738,0.2289 0.1107,0.5001 0.1125,0.8139 -0.0018,0.3007 -0.0332,0.561 -0.0959,0.7806 -0.061,0.2178 -0.1421,0.3986 -0.2398,0.5426 -0.0997,0.1457 -0.205,0.2564 -0.3175,0.3376 -0.0645,0.0481 -0.1292,0.0849 -0.1938,0.1125 -0.0646,0.0277 -0.1439,0.0481 -0.2362,0.0591 -0.0923,0.0111 -0.2104,0.0167 -0.3561,0.0167 -0.0923,0 -0.1902,-0.0037 -0.2898,-0.0111 -0.0997,-0.0075 -0.1974,-0.0203 -0.2915,-0.037 -0.096,-0.0165 -0.1809,-0.0368 -0.2602,-0.0626 -0.0388,-0.0148 -0.0646,-0.037 -0.0794,-0.0665 -0.0147,-0.0295 -0.0203,-0.0739 -0.0203,-0.1329l0 -3.3659zm7.4956 4.44c0,0.3598 0,0.6919 -0.0019,1.0002 -0.0018,0.3063 -0.0073,0.5794 -0.0147,0.8193 -0.0074,0.2399 -0.0202,0.4373 -0.0388,0.5942 -0.0147,0.1605 -0.0442,0.2879 -0.0904,0.3802 -0.0461,0.0941 -0.1218,0.1513 -0.2306,0.1734 -0.0498,0.0111 -0.107,0.0221 -0.1735,0.0314 -0.0665,0.0074 -0.1421,0.013 -0.2251,0.013 -0.0646,0 -0.1108,0.0073 -0.1385,0.0239 -0.0258,0.0147 -0.0387,0.037 -0.0387,0.0647 0,0.0386 0.0185,0.0663 0.0572,0.0848 0.0369,0.0166 0.0923,0.0258 0.1642,0.0258 0.1126,0 0.2363,-0.0018 0.3692,-0.0055 0.1328,-0.0037 0.2657,-0.0074 0.3985,-0.0111 0.133,-0.0036 0.2547,-0.0073 0.3655,-0.011 0.1088,-0.0037 0.1974,-0.0056 0.262,-0.0056 0.1014,0 0.2418,0.0037 0.4189,0.0093 0.1772,0.0054 0.3783,0.0091 0.6016,0.0147 0.2251,0.0055 0.4613,0.0092 0.7068,0.0092 0.0627,0 0.1125,-0.0092 0.1513,-0.0258 0.0388,-0.0185 0.0572,-0.0462 0.059,-0.0848 0,-0.0277 -0.0148,-0.05 -0.0425,-0.0647 -0.0295,-0.0166 -0.0737,-0.0239 -0.1346,-0.0239 -0.0572,0 -0.1181,-0.0019 -0.1864,-0.0056 -0.0664,-0.0055 -0.1329,-0.0111 -0.1993,-0.0167 -0.0665,-0.0073 -0.1255,-0.0147 -0.179,-0.0221 -0.1089,-0.0147 -0.1937,-0.0461 -0.2547,-0.0941 -0.0609,-0.0479 -0.1052,-0.1089 -0.1329,-0.1845 -0.0277,-0.0757 -0.0461,-0.1643 -0.0553,-0.2639 -0.0147,-0.1606 -0.024,-0.3598 -0.0314,-0.6016 -0.0056,-0.2418 -0.0092,-0.5149 -0.011,-0.823 -0.0019,-0.3083 -0.0019,-0.6404 -0.0019,-1.0002l0 -1.9488c0,-0.3341 0,-0.6201 0,-0.8563 0,-0.2362 0,-0.4355 0.0019,-0.5961 0,-0.1604 0.0018,-0.2934 0.0037,-0.4004 0,-0.107 0.0036,-0.1992 0.0054,-0.2768 0.0037,-0.0756 0.0075,-0.1495 0.0112,-0.2177 0.0074,-0.192 0.0425,-0.3396 0.1015,-0.4411 0.0591,-0.0996 0.1623,-0.1643 0.3081,-0.1901 0.0646,-0.011 0.1237,-0.0202 0.1735,-0.0258 0.0516,-0.0056 0.1052,-0.0074 0.1587,-0.0074 0.0554,0 0.0996,-0.0073 0.1291,-0.0221 0.0314,-0.0166 0.0481,-0.0461 0.0481,-0.0886 0,-0.0332 -0.0221,-0.0554 -0.0628,-0.0701 -0.0406,-0.0129 -0.0978,-0.0185 -0.1697,-0.0185 -0.1071,0 -0.2234,0.0019 -0.3489,0.0056 -0.1273,0.0018 -0.2528,0.0074 -0.3801,0.0111 -0.1273,0.0036 -0.2454,0.0073 -0.3525,0.011 -0.1088,0.0037 -0.1993,0.0055 -0.2693,0.0055 -0.0813,0 -0.1828,-0.0018 -0.3009,-0.0055 -0.1199,-0.0037 -0.2454,-0.0074 -0.382,-0.011 -0.1347,-0.0037 -0.2675,-0.0093 -0.3986,-0.0111 -0.131,-0.0037 -0.2509,-0.0056 -0.358,-0.0056 -0.0886,0 -0.155,0.0056 -0.1993,0.0185 -0.0443,0.0147 -0.0665,0.0369 -0.0665,0.0701 0,0.0425 0.0167,0.072 0.0481,0.0886 0.0295,0.0148 0.0737,0.0221 0.1291,0.0221 0.0664,0 0.1348,0.0018 0.2031,0.0093 0.0682,0.0074 0.1346,0.0184 0.1955,0.035 0.1219,0.0259 0.2123,0.0886 0.2713,0.19 0.0609,0.0997 0.0959,0.2418 0.1052,0.4301 0.0037,0.0682 0.0074,0.1421 0.0111,0.2177 0.0018,0.0776 0.0056,0.1698 0.0073,0.2768 0,0.107 0.0018,0.24 0.0018,0.4004 0.0019,0.1606 0.0019,0.3599 0.0019,0.5961 0,0.2362 0,0.5222 0,0.8563l0 1.9488zm6.4549 3.366c0.1955,0 0.3949,-0.013 0.5942,-0.0388 0.1993,-0.0277 0.3985,-0.0739 0.5942,-0.1402 0.1956,-0.0665 0.3876,-0.1588 0.572,-0.275 0.2639,-0.1753 0.4725,-0.3709 0.6238,-0.5887 0.1532,-0.216 0.2602,-0.4392 0.3248,-0.668 0.0628,-0.2307 0.0941,-0.454 0.0923,-0.67 0.0018,-0.262 -0.0314,-0.5092 -0.096,-0.7436 -0.0646,-0.2343 -0.1679,-0.4614 -0.31,-0.6846 -0.1421,-0.2233 -0.3285,-0.4485 -0.561,-0.6773 -0.2325,-0.2288 -0.5149,-0.4669 -0.8488,-0.7179l-0.3101 -0.2325c-0.3044,-0.2307 -0.5407,-0.4336 -0.7124,-0.6108 -0.1716,-0.1772 -0.2915,-0.3432 -0.3616,-0.4983 -0.0683,-0.1568 -0.1015,-0.3192 -0.0997,-0.4853 0.0019,-0.2233 0.0535,-0.4207 0.1588,-0.5906 0.1051,-0.1716 0.2564,-0.3044 0.4539,-0.4022 0.1956,-0.096 0.43,-0.1458 0.7049,-0.1477 0.2381,0.0019 0.4373,0.0333 0.5961,0.0942 0.1587,0.059 0.286,0.1309 0.3838,0.2141 0.0979,0.083 0.1735,0.1605 0.227,0.2343 0.0776,0.0978 0.1366,0.1956 0.179,0.2953 0.0406,0.0996 0.0702,0.1882 0.0867,0.2657 0.0148,0.0775 0.024,0.1347 0.0223,0.1698 0,0.0664 0.0091,0.1162 0.0258,0.1495 0.0184,0.0332 0.0461,0.0498 0.0848,0.0498 0.0443,0.0018 0.0757,-0.024 0.0942,-0.0757 0.0184,-0.0499 0.0277,-0.1366 0.0277,-0.2565 0,-0.286 0.0037,-0.5186 0.011,-0.6976 0.0074,-0.1771 0.0148,-0.3155 0.0222,-0.4152 0.0073,-0.0978 0.011,-0.1697 0.011,-0.2159 0,-0.0387 -0.0129,-0.0682 -0.0405,-0.0868 -0.026,-0.0202 -0.0646,-0.0349 -0.1146,-0.0461 -0.142,-0.0425 -0.3339,-0.083 -0.5738,-0.1236 -0.2418,-0.0405 -0.5408,-0.0609 -0.8988,-0.0646 -0.3856,0.0018 -0.7363,0.0536 -1.0481,0.155 -0.3137,0.1034 -0.5831,0.2473 -0.8083,0.4336 -0.2251,0.1883 -0.3967,0.408 -0.5186,0.6626 -0.1199,0.2546 -0.1808,0.5352 -0.1827,0.8415 -0.0018,0.2971 0.0499,0.5868 0.1551,0.8673 0.1051,0.2805 0.2768,0.5648 0.5166,0.8526 0.2418,0.2879 0.5629,0.5887 0.9671,0.9042l0.5093 0.3987c0.2289,0.179 0.4133,0.3469 0.5573,0.5038 0.144,0.1568 0.2528,0.3063 0.3303,0.4483 0.0757,0.1422 0.1292,0.2806 0.1569,0.4153 0.0295,0.1347 0.0424,0.2694 0.0405,0.4042 0,0.1494 -0.0295,0.297 -0.0921,0.4446 -0.0609,0.1476 -0.1532,0.2843 -0.275,0.4061 -0.1237,0.1235 -0.2788,0.2232 -0.4632,0.2971 -0.1864,0.0738 -0.4042,0.1126 -0.6533,0.1144 -0.2307,0.0019 -0.4522,-0.0351 -0.6607,-0.1071 -0.2104,-0.0738 -0.3967,-0.1919 -0.5573,-0.358 -0.1605,-0.1642 -0.2823,-0.382 -0.3653,-0.6532 -0.0277,-0.096 -0.0518,-0.1957 -0.0702,-0.299 -0.0184,-0.1015 -0.0295,-0.1901 -0.0295,-0.2657 0.0018,-0.0462 -0.0037,-0.0886 -0.0184,-0.1274 -0.013,-0.0388 -0.0444,-0.059 -0.0923,-0.0609 -0.0444,0.0019 -0.0757,0.0295 -0.096,0.0812 -0.0203,0.0536 -0.0314,0.1218 -0.0369,0.2067 -0.0037,0.0462 -0.0073,0.1181 -0.0129,0.2159 -0.0055,0.0979 -0.013,0.2141 -0.0185,0.3469 -0.0073,0.1348 -0.0129,0.2769 -0.0166,0.4301 -0.0055,0.1513 -0.0074,0.3044 -0.0074,0.4576 0,0.0793 0.0037,0.1421 0.0148,0.1883 0.011,0.046 0.0314,0.083 0.0628,0.1107 0.0295,0.0276 0.0738,0.0535 0.1328,0.0774 0.2362,0.1034 0.4835,0.179 0.7456,0.2234 0.262,0.0442 0.5517,0.0664 0.871,0.0646zm-69.277 -7.8614c0,-0.0609 0.0056,-0.1034 0.0204,-0.1311 0.0147,-0.0295 0.0405,-0.0479 0.0793,-0.0572 0.0535,-0.0111 0.1088,-0.0165 0.166,-0.0202 0.0572,-0.0019 0.1237,-0.0019 0.1993,-0.0019 0.1901,0.0019 0.3599,0.0368 0.5094,0.107 0.1495,0.0702 0.2787,0.1643 0.3894,0.2823 0.1107,0.12 0.2011,0.2529 0.2731,0.4024 0.0719,0.1476 0.1254,0.3027 0.1605,0.4613 0.0351,0.1587 0.0517,0.3138 0.0517,0.4632 0,0.2713 -0.0406,0.5056 -0.1181,0.7032 -0.0794,0.1974 -0.1901,0.3543 -0.3358,0.4705 -0.0923,0.0812 -0.203,0.1365 -0.3322,0.1679 -0.1291,0.0296 -0.2842,0.0443 -0.4651,0.0424 -0.1273,0 -0.2325,-0.0036 -0.3173,-0.0091 -0.0868,-0.0056 -0.1532,-0.013 -0.203,-0.024 -0.0222,-0.0037 -0.0407,-0.0148 -0.0555,-0.0314 -0.0147,-0.0167 -0.0221,-0.048 -0.0221,-0.0904l0 -2.7349zm2.5356 5.8241c-0.0019,0.2288 -0.0314,0.4262 -0.0904,0.5905 -0.061,0.1623 -0.1384,0.299 -0.2381,0.406 -0.0977,0.1069 -0.2067,0.1918 -0.3248,0.2527 -0.1181,0.0628 -0.2362,0.1053 -0.3562,0.1311 -0.1181,0.0258 -0.2288,0.0388 -0.3302,0.0369 -0.1255,0.0019 -0.2547,-0.0055 -0.3876,-0.0203 -0.131,-0.0166 -0.2713,-0.0535 -0.4207,-0.1126 -0.0886,-0.0351 -0.1588,-0.0756 -0.2104,-0.1237 -0.0517,-0.0479 -0.0905,-0.1107 -0.1163,-0.1881 -0.0258,-0.0757 -0.0424,-0.1753 -0.0498,-0.2971 -0.0074,-0.1218 -0.0111,-0.2732 -0.0111,-0.4541l0 -2.6241c0,-0.0277 0.0056,-0.048 0.0167,-0.0591 0.011,-0.0128 0.0277,-0.0184 0.0498,-0.0184 0.0793,0 0.155,0 0.2251,0.0019 0.0701,0 0.155,0.0037 0.251,0.0092 0.1439,0.0073 0.2694,0.0203 0.3783,0.0424 0.1088,0.0204 0.2085,0.0481 0.2953,0.0849 0.0867,0.0369 0.1697,0.083 0.2454,0.1385 0.2103,0.1476 0.3839,0.3137 0.5222,0.4945 0.1403,0.1827 0.2491,0.3727 0.3304,0.5702 0.0812,0.1975 0.1384,0.3931 0.1716,0.5869 0.0351,0.1956 0.0516,0.3783 0.0498,0.5518zm4.185 -1.3287c0,0.3413 0,0.6605 -0.0018,0.9614 -0.0019,0.2989 -0.0073,0.5665 -0.0147,0.8046 -0.0075,0.2381 -0.0203,0.4355 -0.0388,0.5924 -0.0129,0.107 -0.0314,0.2048 -0.0535,0.2915 -0.0222,0.0849 -0.0535,0.1569 -0.096,0.2104 -0.0406,0.0554 -0.0978,0.0923 -0.1716,0.107 -0.0498,0.0111 -0.107,0.0221 -0.1735,0.0314 -0.0664,0.0074 -0.1421,0.013 -0.2251,0.013 -0.0646,0 -0.1108,0.0073 -0.1385,0.0239 -0.0258,0.0147 -0.0386,0.037 -0.0386,0.0647 0,0.0386 0.0184,0.0663 0.0572,0.0848 0.0368,0.0166 0.0922,0.0258 0.1642,0.0258 0.1125,0 0.2362,-0.0018 0.3691,-0.0055 0.1328,-0.0037 0.2639,-0.0074 0.393,-0.0111 0.1311,-0.0036 0.2473,-0.0073 0.3506,-0.011 0.1053,-0.0037 0.1846,-0.0056 0.2381,-0.0056 0.0443,0 0.1218,0.0019 0.2343,0.0056 0.1126,0.0037 0.2455,0.0074 0.4005,0.011 0.155,0.0037 0.3193,0.0074 0.4909,0.0111 0.1716,0.0037 0.3396,0.0055 0.5019,0.0055 0.0721,0 0.1274,-0.0092 0.1642,-0.0258 0.0388,-0.0185 0.0572,-0.0462 0.0572,-0.0848 0,-0.0277 -0.011,-0.05 -0.0331,-0.0647 -0.0222,-0.0166 -0.0555,-0.0239 -0.0997,-0.0239 -0.0461,0 -0.0997,-0.0019 -0.1623,-0.0056 -0.0628,-0.0055 -0.1292,-0.0111 -0.1957,-0.0167 -0.0665,-0.0073 -0.1274,-0.0147 -0.1846,-0.0221 -0.1088,-0.0147 -0.1937,-0.0516 -0.2527,-0.107 -0.0591,-0.0535 -0.0997,-0.1255 -0.1256,-0.2104 -0.0258,-0.0867 -0.0442,-0.1845 -0.0535,-0.2915 -0.0184,-0.1569 -0.0313,-0.3543 -0.0388,-0.5924 -0.0072,-0.2381 -0.0128,-0.5075 -0.0147,-0.8083 -0.0018,-0.3007 -0.0018,-0.6237 -0.0018,-0.9689l0 -0.1549c0,-0.0332 0.0074,-0.0554 0.024,-0.0702 0.0148,-0.0129 0.0369,-0.0184 0.0646,-0.0184l0.9632 0.0222c0.0388,-0.0019 0.0758,0.0037 0.109,0.0128 0.0331,0.0111 0.0626,0.0314 0.0903,0.0646 0.0369,0.0425 0.0941,0.1181 0.1699,0.2234 0.0756,0.1051 0.1642,0.2306 0.2657,0.3746 0.1014,0.1439 0.2104,0.2971 0.323,0.4576 0.1125,0.1606 0.2269,0.3175 0.3376,0.4724 0.2048,0.2843 0.3931,0.5315 0.5629,0.7437 0.1697,0.2123 0.3322,0.3931 0.4872,0.5389 0.1549,0.1458 0.31,0.2602 0.4669,0.3451 0.0941,0.0516 0.1937,0.0922 0.2971,0.1236 0.1051,0.0314 0.2269,0.0535 0.369,0.0665 0.1421,0.0128 0.3137,0.0202 0.5186,0.0202l1.0519 0c0.0664,0 0.1181,-0.0074 0.155,-0.0221 0.0368,-0.0166 0.0554,-0.0462 0.0554,-0.0885 0,-0.0277 -0.0111,-0.05 -0.0333,-0.0647 -0.0221,-0.0166 -0.0553,-0.0239 -0.0997,-0.0239 -0.0442,0 -0.0922,-0.0019 -0.142,-0.0074 -0.0517,-0.0056 -0.107,-0.0149 -0.1679,-0.0259 -0.0425,-0.0074 -0.1016,-0.0203 -0.1772,-0.0406 -0.0757,-0.0221 -0.1661,-0.0572 -0.2731,-0.107 -0.1052,-0.0516 -0.2251,-0.1255 -0.3581,-0.2215 -0.1328,-0.0959 -0.2767,-0.2251 -0.4317,-0.3838 -0.3248,-0.3451 -0.6829,-0.7603 -1.076,-1.2493 -0.3948,-0.4873 -0.8359,-1.0427 -1.3268,-1.6628 0.371,-0.3008 0.6625,-0.5886 0.8766,-0.8635 0.214,-0.2769 0.3654,-0.5463 0.4539,-0.8121 0.0905,-0.2639 0.133,-0.5333 0.1311,-0.8046 -0.0018,-0.1863 -0.0258,-0.3598 -0.0739,-0.5204 -0.0479,-0.1604 -0.1107,-0.3062 -0.1863,-0.4373 -0.0757,-0.1311 -0.1569,-0.2436 -0.2436,-0.3378 -0.0867,-0.094 -0.1697,-0.1679 -0.2492,-0.2214 -0.2011,-0.1346 -0.4133,-0.2362 -0.6384,-0.3063 -0.2251,-0.0682 -0.4559,-0.1144 -0.6939,-0.1384 -0.2362,-0.0221 -0.4705,-0.0332 -0.7049,-0.0314 -0.0886,0 -0.1994,0.0019 -0.3359,0.0056 -0.1348,0.0018 -0.2787,0.0074 -0.4318,0.0111 -0.1532,0.0036 -0.299,0.0073 -0.4393,0.011 -0.1402,0.0037 -0.2583,0.0055 -0.3542,0.0055 -0.0591,0 -0.144,-0.0018 -0.2529,-0.0055 -0.1088,-0.0037 -0.2325,-0.0074 -0.3727,-0.011 -0.1402,-0.0037 -0.2861,-0.0093 -0.4392,-0.0111 -0.1532,-0.0037 -0.3045,-0.0056 -0.4522,-0.0056 -0.083,-0.0018 -0.1439,0.0056 -0.1845,0.0203 -0.0387,0.0148 -0.0591,0.0406 -0.0591,0.0794 0,0.0368 0.0167,0.0646 0.0481,0.0793 0.0332,0.013 0.0793,0.0203 0.1402,0.0203 0.0811,0 0.1605,0.0018 0.2417,0.0074 0.0794,0.0056 0.144,0.0148 0.1901,0.0258 0.1199,0.024 0.2141,0.0628 0.2805,0.1144 0.0664,0.0499 0.1144,0.1181 0.144,0.203 0.0276,0.0831 0.046,0.1883 0.0516,0.3138 0.0037,0.0682 0.0074,0.1421 0.0111,0.2177 0.0019,0.0776 0.0056,0.1698 0.0073,0.2768 0,0.107 0.0019,0.2418 0.0019,0.4004 0.0018,0.1606 0.0018,0.3599 0.0018,0.5961 0,0.2362 0,0.5222 0,0.8563l0 1.9488zm1.3066 -4.44c0,-0.0444 0.0055,-0.0776 0.0203,-0.1034 0.0148,-0.024 0.0406,-0.0406 0.0794,-0.0517 0.0553,-0.0165 0.1328,-0.0277 0.2306,-0.0351 0.0996,-0.0074 0.2177,-0.0092 0.3562,-0.0092 0.1328,-0.0018 0.2749,0.0185 0.4262,0.059 0.1532,0.0407 0.3027,0.109 0.4522,0.2013 0.1495,0.0921 0.2842,0.2177 0.4078,0.3727 0.1218,0.1569 0.2214,0.3488 0.2953,0.5794 0.0737,0.2289 0.1107,0.5001 0.1125,0.8139 -0.0018,0.3007 -0.0332,0.561 -0.096,0.7806 -0.0609,0.2178 -0.142,0.3986 -0.2398,0.5426 -0.0997,0.1457 -0.2049,0.2564 -0.3175,0.3376 -0.0645,0.0481 -0.1291,0.0849 -0.1937,0.1125 -0.0646,0.0277 -0.1439,0.0481 -0.2362,0.0591 -0.0923,0.0111 -0.2104,0.0167 -0.3562,0.0167 -0.0922,0 -0.1901,-0.0037 -0.2897,-0.0111 -0.0997,-0.0075 -0.1974,-0.0203 -0.2915,-0.037 -0.096,-0.0165 -0.1809,-0.0368 -0.2602,-0.0626 -0.0388,-0.0148 -0.0646,-0.037 -0.0794,-0.0665 -0.0148,-0.0295 -0.0203,-0.0739 -0.0203,-0.1329l0 -3.3659zm7.4956 4.44c0,0.3413 0,0.6605 -0.0019,0.9614 -0.0018,0.2989 -0.0073,0.5665 -0.0147,0.8046 -0.0074,0.2381 -0.0202,0.4355 -0.0388,0.5924 -0.0128,0.107 -0.0313,0.2048 -0.0535,0.2897 -0.0221,0.0867 -0.0535,0.1569 -0.096,0.2122 -0.0405,0.0554 -0.0977,0.0923 -0.1716,0.107 -0.0497,0.0111 -0.1069,0.0221 -0.1734,0.0314 -0.0665,0.0074 -0.1421,0.013 -0.2251,0.013 -0.0646,0 -0.1108,0.0073 -0.1385,0.0239 -0.0258,0.0147 -0.0387,0.037 -0.0387,0.0647 0,0.0386 0.0184,0.0663 0.0572,0.0848 0.0369,0.0166 0.0923,0.0258 0.1642,0.0258 0.1126,-0.0018 0.2362,-0.0055 0.3692,-0.0111 0.1346,-0.0074 0.2657,-0.011 0.3948,-0.011 0.1348,-0.0055 0.2583,-0.0092 0.3692,-0.0092 0.1125,-0.0019 0.1992,-0.0019 0.262,-0.0019 0.1642,0 0.3376,0.0019 0.5222,0.0074 0.1846,0.0056 0.3931,0.0147 0.6293,0.0258 0.2362,0.0056 0.5111,0.0129 0.8249,0.0203 0.3137,0.0074 0.6773,0.013 1.0906,0.013 0.1384,0.0018 0.2473,-0.0019 0.3248,-0.0111 0.0775,-0.0093 0.1366,-0.0333 0.1772,-0.0738 0.0405,-0.0406 0.0719,-0.109 0.0959,-0.203 0.0148,-0.0573 0.0295,-0.1422 0.0462,-0.2492 0.0165,-0.1088 0.0314,-0.2269 0.0461,-0.3524 0.0148,-0.1274 0.0276,-0.2474 0.0369,-0.3599 0.0093,-0.1125 0.0147,-0.2011 0.0147,-0.2676 0.0019,-0.0572 -0.0018,-0.1033 -0.011,-0.1402 -0.0093,-0.0388 -0.0351,-0.0572 -0.0776,-0.0591 -0.0368,0 -0.0645,0.0111 -0.0811,0.037 -0.0166,0.0258 -0.0314,0.0682 -0.0406,0.1291 -0.0369,0.2252 -0.0941,0.4005 -0.1698,0.5296 -0.0775,0.1292 -0.1863,0.2252 -0.3285,0.2898 -0.0978,0.0443 -0.2085,0.0738 -0.334,0.094 -0.1236,0.0186 -0.2492,0.0296 -0.3728,0.0333 -0.1236,0.0055 -0.2361,0.0055 -0.334,0.0055 -0.2805,0.0019 -0.5075,-0.0111 -0.6809,-0.0369 -0.1735,-0.0277 -0.3064,-0.0738 -0.3987,-0.1421 -0.0922,-0.0664 -0.1549,-0.1623 -0.1919,-0.2841 -0.035,-0.1218 -0.0535,-0.2769 -0.0572,-0.4669 -0.0018,-0.0665 -0.0037,-0.155 -0.0037,-0.2657 -0.0018,-0.1108 -0.0018,-0.2344 -0.0018,-0.3692 0.0018,-0.1346 0.0018,-0.2694 0.0018,-0.4078 0.0019,-0.1365 0.0019,-0.2639 0.0019,-0.382 0.0018,-0.1181 0.0018,-0.2141 0.0018,-0.2915l0 -0.8747c0,-0.0333 0.0037,-0.0609 0.013,-0.0813 0.0092,-0.0184 0.0258,-0.0295 0.0535,-0.0295 0.0554,0 0.1365,0 0.2454,0.0018 0.1089,0 0.2289,0.0019 0.3617,0.0037 0.1348,0.0019 0.2657,0.0037 0.3968,0.0056 0.131,0.0037 0.2491,0.0055 0.3506,0.0092 0.1015,0.0037 0.1735,0.0073 0.2177,0.0129 0.1366,0.0148 0.2455,0.0425 0.3304,0.083 0.0848,0.0388 0.1494,0.0886 0.1955,0.1477 0.0462,0.059 0.0776,0.1273 0.0942,0.2012 0.0166,0.0719 0.0258,0.1439 0.0313,0.2121 0.0038,0.0683 0.0093,0.1311 0.013,0.1864 0,0.0277 0.0073,0.0517 0.0203,0.0702 0.0148,0.0184 0.0406,0.0295 0.0793,0.0295 0.0332,-0.0018 0.0553,-0.0129 0.0702,-0.035 0.0147,-0.0222 0.0221,-0.0498 0.0258,-0.0812 0.0037,-0.0332 0.0037,-0.0646 0.0037,-0.0941 0,-0.0204 0.0018,-0.061 0.0056,-0.1182 0.0037,-0.0572 0.0074,-0.1236 0.0128,-0.1992 0.0037,-0.0758 0.0093,-0.1514 0.0148,-0.2271 0.0037,-0.0738 0.0074,-0.1402 0.011,-0.1974 0.0148,-0.1864 0.0296,-0.3359 0.0425,-0.4466 0.013,-0.1107 0.024,-0.1937 0.0333,-0.2472 0.0092,-0.0555 0.0128,-0.0942 0.0128,-0.1146 0,-0.0331 -0.0073,-0.0553 -0.0221,-0.07 -0.0147,-0.013 -0.0332,-0.0185 -0.0554,-0.0185 -0.0258,0 -0.0535,0.0129 -0.0793,0.0388 -0.0276,0.0258 -0.059,0.0609 -0.0978,0.1052 -0.0498,0.0535 -0.1163,0.0922 -0.203,0.1163 -0.0867,0.0239 -0.1956,0.0405 -0.3285,0.0498 -0.0535,0.0037 -0.1402,0.0074 -0.2583,0.0111 -0.1181,0.0017 -0.2546,0.0054 -0.4041,0.0054 -0.1514,0.0019 -0.3027,0.0037 -0.4541,0.0037 -0.1494,0.0019 -0.2841,0.0019 -0.4022,0.0019 -0.1163,0 -0.2011,0 -0.2529,0 -0.0332,0 -0.0535,-0.011 -0.0645,-0.0314 -0.0093,-0.0221 -0.0148,-0.0517 -0.013,-0.0904l0 -2.8014c0,-0.0386 0.0056,-0.0663 0.0185,-0.0848 0.0111,-0.0184 0.0313,-0.0259 0.059,-0.0259 0.0462,0 0.1237,0 0.2307,0.0019 0.1071,0.0018 0.2289,0.0037 0.3635,0.0074 0.1367,0.0019 0.2732,0.0056 0.4079,0.0093 0.1347,0.0036 0.2528,0.0073 0.3561,0.0128 0.1034,0.0037 0.1735,0.0074 0.2141,0.013 0.1827,0.0221 0.323,0.0516 0.4208,0.0886 0.0996,0.0368 0.1716,0.0811 0.2177,0.1328 0.0462,0.0516 0.0812,0.1107 0.1034,0.1771 0.0184,0.0444 0.0332,0.0942 0.0424,0.1458 0.0092,0.0499 0.0167,0.0997 0.0185,0.1439 0.0037,0.0462 0.0054,0.0813 0.0054,0.109 0,0.0498 0.0075,0.0886 0.0204,0.1144 0.0147,0.0258 0.0406,0.0405 0.0793,0.0405 0.0388,-0.0018 0.0647,-0.0147 0.0812,-0.0405 0.0148,-0.0258 0.0258,-0.0518 0.0295,-0.0813 0.0056,-0.0349 0.0112,-0.0867 0.0167,-0.1549 0.0056,-0.0683 0.011,-0.1402 0.0147,-0.2197 0.0056,-0.0774 0.0093,-0.1494 0.0148,-0.2141 0.0037,-0.0645 0.0074,-0.1125 0.0092,-0.142 0.0111,-0.1679 0.0241,-0.299 0.0369,-0.3967 0.0148,-0.096 0.0258,-0.168 0.037,-0.216 0.0092,-0.0479 0.0147,-0.083 0.0147,-0.107 0,-0.0276 -0.0036,-0.0516 -0.0129,-0.0701 -0.0093,-0.0185 -0.0258,-0.0296 -0.0535,-0.0296 -0.0277,0.0019 -0.0572,0.0074 -0.0886,0.0186 -0.0313,0.011 -0.0609,0.0184 -0.0885,0.0258 -0.0462,0.011 -0.109,0.0221 -0.192,0.0332 -0.083,0.011 -0.1772,0.0221 -0.2842,0.0331 -0.0369,0.0019 -0.1218,0.0037 -0.2529,0.0037 -0.1309,0.0019 -0.2915,0.0037 -0.4797,0.0037 -0.1883,0.0019 -0.3875,0.0019 -0.5979,0.0019 -0.2104,0 -0.4134,0.0018 -0.609,0.0018 -0.1957,0 -0.3673,0 -0.5149,0 -0.1476,0 -0.2509,0 -0.3137,0 -0.0793,0 -0.179,-0.0018 -0.2989,-0.0074 -0.12,-0.0037 -0.2528,-0.0091 -0.3986,-0.0147 -0.1403,0 -0.2861,-0.0018 -0.4393,-0.0055 -0.1549,-0.0037 -0.3063,-0.0056 -0.4576,-0.0056 -0.083,0 -0.1439,0.0056 -0.1846,0.0203 -0.0386,0.0148 -0.059,0.0406 -0.059,0.0794 0,0.0368 0.0166,0.0646 0.048,0.0793 0.0333,0.013 0.0793,0.0203 0.1403,0.0203 0.0811,0 0.1604,0.0018 0.2417,0.0074 0.0793,0.0056 0.1439,0.0148 0.19,0.0258 0.12,0.0258 0.2141,0.0628 0.2806,0.1144 0.0663,0.0518 0.1144,0.1181 0.1439,0.203 0.0277,0.085 0.0461,0.1883 0.0517,0.3138 0.0037,0.0682 0.0074,0.1421 0.0111,0.2177 0.0018,0.0776 0.0055,0.1698 0.0073,0.2768 0,0.107 0.0018,0.2418 0.0018,0.4023 0.0019,0.1587 0.0019,0.358 0.0019,0.5942 0,0.2362 0,0.5222 0,0.8563l0 1.9488zm7.4402 0c0,0.3413 0,0.6605 -0.0018,0.9614 -0.0019,0.2989 -0.0073,0.5665 -0.0147,0.8046 -0.0074,0.2381 -0.0203,0.4355 -0.0388,0.5924 -0.0129,0.107 -0.0314,0.2048 -0.0535,0.2897 -0.0221,0.0867 -0.0535,0.1569 -0.096,0.2122 -0.0405,0.0554 -0.0977,0.0923 -0.1716,0.107 -0.0498,0.0111 -0.107,0.0221 -0.1735,0.0314 -0.0664,0.0074 -0.142,0.013 -0.2251,0.013 -0.0646,0 -0.1108,0.0073 -0.1384,0.0239 -0.0259,0.0147 -0.0387,0.037 -0.0387,0.0647 0,0.0386 0.0184,0.0663 0.0572,0.0848 0.0368,0.0166 0.0923,0.0258 0.1642,0.0258 0.1125,-0.0018 0.2362,-0.0055 0.3691,-0.0111 0.1347,-0.0074 0.2657,-0.011 0.3949,-0.011 0.1347,-0.0055 0.2583,-0.0092 0.3691,-0.0092 0.1125,-0.0019 0.1993,-0.0019 0.262,-0.0019 0.1642,0 0.3377,0.0019 0.5222,0.0074 0.1846,0.0056 0.3932,0.0147 0.6294,0.0258 0.2362,0.0056 0.5111,0.0129 0.8249,0.0203 0.3136,0.0074 0.6772,0.013 1.0906,0.013 0.1384,0.0018 0.2472,-0.0019 0.3248,-0.0111 0.0774,-0.0093 0.1365,-0.0333 0.1771,-0.0738 0.0406,-0.0406 0.072,-0.109 0.0959,-0.203 0.0148,-0.0573 0.0295,-0.1422 0.0462,-0.2492 0.0166,-0.1088 0.0314,-0.2269 0.0461,-0.3524 0.0148,-0.1274 0.0277,-0.2474 0.0369,-0.3599 0.0093,-0.1125 0.0147,-0.2011 0.0147,-0.2676 0.0019,-0.0572 -0.0018,-0.1033 -0.011,-0.1402 -0.0092,-0.0388 -0.035,-0.0572 -0.0775,-0.0591 -0.0369,0 -0.0645,0.0111 -0.0812,0.037 -0.0166,0.0258 -0.0314,0.0682 -0.0405,0.1291 -0.037,0.2252 -0.0942,0.4005 -0.1699,0.5296 -0.0775,0.1292 -0.1863,0.2252 -0.3285,0.2898 -0.0977,0.0443 -0.2084,0.0738 -0.3339,0.094 -0.1237,0.0186 -0.2492,0.0296 -0.3729,0.0333 -0.1235,0.0055 -0.2361,0.0055 -0.3339,0.0055 -0.2806,0.0019 -0.5075,-0.0111 -0.681,-0.0369 -0.1734,-0.0277 -0.3064,-0.0738 -0.3986,-0.1421 -0.0922,-0.0664 -0.155,-0.1623 -0.1919,-0.2841 -0.0351,-0.1218 -0.0535,-0.2769 -0.0572,-0.4669 -0.0019,-0.0665 -0.0037,-0.155 -0.0037,-0.2657 -0.0019,-0.1108 -0.0019,-0.2344 -0.0019,-0.3692 0.0019,-0.1346 0.0019,-0.2694 0.0019,-0.4078 0.0018,-0.1365 0.0018,-0.2639 0.0018,-0.382 0.0019,-0.1181 0.0019,-0.2141 0.0019,-0.2915l0 -0.8747c0,-0.0333 0.0037,-0.0609 0.013,-0.0813 0.0091,-0.0184 0.0258,-0.0295 0.0534,-0.0295 0.0554,0 0.1366,0 0.2454,0.0018 0.109,0 0.2289,0.0019 0.3617,0.0037 0.1348,0.0019 0.2658,0.0037 0.3969,0.0056 0.1309,0.0037 0.249,0.0055 0.3506,0.0092 0.1014,0.0037 0.1734,0.0073 0.2177,0.0129 0.1366,0.0148 0.2454,0.0425 0.3303,0.083 0.0849,0.0388 0.1495,0.0886 0.1956,0.1477 0.0462,0.059 0.0776,0.1273 0.0941,0.2012 0.0167,0.0719 0.0258,0.1439 0.0314,0.2121 0.0037,0.0683 0.0093,0.1311 0.013,0.1864 0,0.0277 0.0073,0.0517 0.0202,0.0702 0.0148,0.0184 0.0407,0.0295 0.0793,0.0295 0.0333,-0.0018 0.0554,-0.0129 0.0702,-0.035 0.0147,-0.0222 0.0221,-0.0498 0.0258,-0.0812 0.0037,-0.0332 0.0037,-0.0646 0.0037,-0.0941 0,-0.0204 0.0019,-0.061 0.0056,-0.1182 0.0037,-0.0572 0.0074,-0.1236 0.0128,-0.1992 0.0038,-0.0758 0.0093,-0.1514 0.0149,-0.2271 0.0037,-0.0738 0.0074,-0.1402 0.011,-0.1974 0.0148,-0.1864 0.0295,-0.3359 0.0425,-0.4466 0.0129,-0.1107 0.0239,-0.1937 0.0332,-0.2472 0.0093,-0.0555 0.0128,-0.0942 0.0128,-0.1146 0,-0.0331 -0.0072,-0.0553 -0.0221,-0.07 -0.0147,-0.013 -0.0332,-0.0185 -0.0553,-0.0185 -0.0258,0 -0.0535,0.0129 -0.0793,0.0388 -0.0277,0.0258 -0.0591,0.0609 -0.0979,0.1052 -0.0498,0.0535 -0.1162,0.0922 -0.203,0.1163 -0.0867,0.0239 -0.1955,0.0405 -0.3285,0.0498 -0.0534,0.0037 -0.1402,0.0074 -0.2583,0.0111 -0.1181,0.0017 -0.2546,0.0054 -0.4041,0.0054 -0.1513,0.0019 -0.3027,0.0037 -0.454,0.0037 -0.1495,0.0019 -0.2842,0.0019 -0.4023,0.0019 -0.1162,0 -0.2011,0 -0.2529,0 -0.0332,0 -0.0534,-0.011 -0.0644,-0.0314 -0.0093,-0.0221 -0.0149,-0.0517 -0.013,-0.0904l0 -2.8014c0,-0.0386 0.0055,-0.0663 0.0184,-0.0848 0.0111,-0.0184 0.0314,-0.0259 0.059,-0.0259 0.0462,0 0.1237,0 0.2307,0.0019 0.1071,0.0018 0.2289,0.0037 0.3636,0.0074 0.1366,0.0019 0.2731,0.0056 0.4078,0.0093 0.1348,0.0036 0.2529,0.0073 0.3562,0.0128 0.1034,0.0037 0.1734,0.0074 0.2141,0.013 0.1827,0.0221 0.3229,0.0516 0.4208,0.0886 0.0995,0.0368 0.1716,0.0811 0.2176,0.1328 0.0462,0.0516 0.0812,0.1107 0.1034,0.1771 0.0185,0.0444 0.0333,0.0942 0.0424,0.1458 0.0093,0.0499 0.0167,0.0997 0.0185,0.1439 0.0038,0.0462 0.0055,0.0813 0.0055,0.109 0,0.0498 0.0074,0.0886 0.0204,0.1144 0.0147,0.0258 0.0405,0.0405 0.0793,0.0405 0.0388,-0.0018 0.0646,-0.0147 0.0812,-0.0405 0.0148,-0.0258 0.0258,-0.0518 0.0295,-0.0813 0.0055,-0.0349 0.0111,-0.0867 0.0167,-0.1549 0.0055,-0.0683 0.011,-0.1402 0.0147,-0.2197 0.0055,-0.0774 0.0092,-0.1494 0.0148,-0.2141 0.0037,-0.0645 0.0074,-0.1125 0.0091,-0.142 0.0111,-0.1679 0.0241,-0.299 0.037,-0.3967 0.0148,-0.096 0.0258,-0.168 0.0369,-0.216 0.0093,-0.0479 0.0147,-0.083 0.0147,-0.107 0,-0.0276 -0.0036,-0.0516 -0.0128,-0.0701 -0.0093,-0.0185 -0.0259,-0.0296 -0.0535,-0.0296 -0.0277,0.0019 -0.0572,0.0074 -0.0886,0.0186 -0.0314,0.011 -0.0609,0.0184 -0.0886,0.0258 -0.0462,0.011 -0.109,0.0221 -0.192,0.0332 -0.083,0.011 -0.1771,0.0221 -0.2841,0.0331 -0.037,0.0019 -0.1218,0.0037 -0.2529,0.0037 -0.131,0.0019 -0.2916,0.0037 -0.4797,0.0037 -0.1883,0.0019 -0.3876,0.0019 -0.598,0.0019 -0.2104,0 -0.4134,0.0018 -0.6089,0.0018 -0.1957,0 -0.3673,0 -0.5149,0 -0.1477,0 -0.251,0 -0.3137,0 -0.0793,0 -0.179,-0.0018 -0.299,-0.0074 -0.12,-0.0037 -0.2528,-0.0091 -0.3985,-0.0147 -0.1404,0 -0.2862,-0.0018 -0.4394,-0.0055 -0.1549,-0.0037 -0.3062,-0.0056 -0.4576,-0.0056 -0.083,0 -0.1439,0.0056 -0.1845,0.0203 -0.0387,0.0148 -0.0591,0.0406 -0.0591,0.0794 0,0.0368 0.0167,0.0646 0.0481,0.0793 0.0332,0.013 0.0793,0.0203 0.1402,0.0203 0.0812,0 0.1605,0.0018 0.2418,0.0074 0.0793,0.0056 0.1439,0.0148 0.19,0.0258 0.1199,0.0258 0.2141,0.0628 0.2805,0.1144 0.0664,0.0518 0.1144,0.1181 0.144,0.203 0.0276,0.085 0.046,0.1883 0.0516,0.3138 0.0037,0.0682 0.0074,0.1421 0.0111,0.2177 0.0019,0.0776 0.0056,0.1698 0.0073,0.2768 0,0.107 0.0019,0.2418 0.0019,0.4023 0.0018,0.1587 0.0018,0.358 0.0018,0.5942 0,0.2362 0,0.5222 0,0.8563l0 1.9488z" class="fil1"/>
 </g>
 <g id="Layer-3">
  <metadata id="CorelCorpID_2Corel-Layer"/>
  <path d="M20.5104 53.4009c0,0.1675 0,0.3239 -0.0009,0.4714 -0.0008,0.1465 -0.0036,0.2777 -0.0072,0.3944 -0.0036,0.1166 -0.01,0.2134 -0.019,0.2903 -0.0064,0.0526 -0.0154,0.1005 -0.0263,0.143 -0.0107,0.0416 -0.0261,0.0769 -0.047,0.1031 -0.0199,0.0272 -0.0479,0.0452 -0.0842,0.0524 -0.0243,0.0054 -0.0524,0.0109 -0.0849,0.0154 -0.0326,0.0036 -0.0696,0.0064 -0.1104,0.0064 -0.0316,0 -0.0543,0.0036 -0.0679,0.0117 -0.0126,0.0073 -0.0189,0.0181 -0.0189,0.0317 0,0.019 0.009,0.0325 0.028,0.0416 0.0182,0.0082 0.0453,0.0127 0.0806,0.0127 0.0551,0 0.1158,-0.0009 0.1808,-0.0028 0.0651,-0.0017 0.1294,-0.0036 0.1927,-0.0054 0.0643,-0.0018 0.1212,-0.0036 0.1718,-0.0055 0.0517,-0.0017 0.0906,-0.0026 0.1168,-0.0026 0.0217,0 0.0597,0.0009 0.1148,0.0026 0.0553,0.0019 0.1203,0.0037 0.1963,0.0055 0.0761,0.0018 0.1565,0.0037 0.2406,0.0054 0.0842,0.0019 0.1665,0.0028 0.2461,0.0028 0.0353,0 0.0624,-0.0045 0.0805,-0.0127 0.019,-0.0091 0.0281,-0.0226 0.0281,-0.0416 0,-0.0136 -0.0055,-0.0244 -0.0164,-0.0317 -0.0108,-0.0081 -0.0271,-0.0117 -0.0488,-0.0117 -0.0226,0 -0.0488,-0.001 -0.0796,-0.0028 -0.0308,-0.0027 -0.0633,-0.0053 -0.0958,-0.0081 -0.0326,-0.0036 -0.0625,-0.0072 -0.0905,-0.0109 -0.0534,-0.0072 -0.095,-0.0252 -0.124,-0.0524 -0.0289,-0.0262 -0.0489,-0.0615 -0.0615,-0.1031 -0.0126,-0.0425 -0.0216,-0.0904 -0.0261,-0.143 -0.0092,-0.0769 -0.0154,-0.1737 -0.0191,-0.2903 -0.0036,-0.1167 -0.0063,-0.2488 -0.0072,-0.3962 -0.001,-0.1474 -0.001,-0.3058 -0.001,-0.4749l0 -0.0761c0,-0.0162 0.0036,-0.0271 0.0119,-0.0343 0.0071,-0.0063 0.018,-0.0091 0.0316,-0.0091l0.4722 0.0109c0.019,-0.0009 0.037,0.0019 0.0533,0.0064 0.0164,0.0054 0.0308,0.0154 0.0444,0.0316 0.0181,0.0208 0.0461,0.0579 0.0832,0.1094 0.0371,0.0516 0.0805,0.1131 0.1303,0.1836 0.0497,0.0707 0.1031,0.1457 0.1583,0.2245 0.0551,0.0786 0.1113,0.1555 0.1655,0.2315 0.1004,0.1393 0.1926,0.2606 0.2759,0.3645 0.0832,0.104 0.1628,0.1927 0.2387,0.2642 0.0761,0.0714 0.1521,0.1276 0.229,0.1691 0.0461,0.0254 0.0949,0.0453 0.1456,0.0606 0.0516,0.0154 0.1113,0.0263 0.1809,0.0326 0.0697,0.0063 0.1538,0.01 0.2542,0.01l0.5156 0c0.0325,0 0.0579,-0.0037 0.0759,-0.0109 0.0182,-0.0081 0.0272,-0.0226 0.0272,-0.0434 0,-0.0136 -0.0054,-0.0244 -0.0163,-0.0317 -0.0109,-0.0081 -0.0271,-0.0117 -0.0488,-0.0117 -0.0217,0 -0.0452,-0.001 -0.0696,-0.0036 -0.0254,-0.0028 -0.0525,-0.0073 -0.0824,-0.0128 -0.0208,-0.0035 -0.0498,-0.0099 -0.0868,-0.0199 -0.0371,-0.0107 -0.0814,-0.028 -0.1339,-0.0524 -0.0516,-0.0253 -0.1103,-0.0615 -0.1755,-0.1085 -0.0651,-0.047 -0.1357,-0.1104 -0.2117,-0.1882 -0.1592,-0.1691 -0.3346,-0.3727 -0.5273,-0.6124 -0.1936,-0.2388 -0.4098,-0.5111 -0.6504,-0.815 0.1818,-0.1474 0.3247,-0.2886 0.4296,-0.4234 0.105,-0.1357 0.1791,-0.2677 0.2226,-0.3979 0.0443,-0.1294 0.0652,-0.2615 0.0642,-0.3944 -0.0009,-0.0914 -0.0126,-0.1765 -0.0362,-0.2551 -0.0235,-0.0788 -0.0542,-0.1502 -0.0914,-0.2145 -0.037,-0.0641 -0.0769,-0.1193 -0.1194,-0.1654 -0.0425,-0.0462 -0.0832,-0.0824 -0.122,-0.1086 -0.0987,-0.066 -0.2026,-0.1158 -0.313,-0.1502 -0.1104,-0.0335 -0.2235,-0.0561 -0.3402,-0.0679 -0.1158,-0.0107 -0.2306,-0.0162 -0.3455,-0.0153 -0.0434,0 -0.0977,0.0009 -0.1646,0.0027 -0.066,0.0009 -0.1367,0.0036 -0.2117,0.0054 -0.075,0.0019 -0.1466,0.0036 -0.2153,0.0055 -0.0687,0.0017 -0.1266,0.0027 -0.1737,0.0027 -0.0289,0 -0.0706,-0.001 -0.1239,-0.0027 -0.0533,-0.0019 -0.114,-0.0036 -0.1828,-0.0055 -0.0686,-0.0018 -0.1401,-0.0045 -0.2152,-0.0054 -0.0751,-0.0018 -0.1493,-0.0027 -0.2217,-0.0027 -0.0406,-0.0009 -0.0705,0.0027 -0.0904,0.01 -0.019,0.0072 -0.0289,0.0198 -0.0289,0.0388 0,0.0182 0.0081,0.0317 0.0235,0.0389 0.0163,0.0064 0.0389,0.01 0.0687,0.01 0.0399,0 0.0787,0.0009 0.1185,0.0037 0.0389,0.0026 0.0706,0.0071 0.0932,0.0126 0.0588,0.0118 0.1049,0.0308 0.1375,0.056 0.0326,0.0245 0.0561,0.0579 0.0706,0.0996 0.0135,0.0406 0.0226,0.0922 0.0252,0.1538 0.0019,0.0334 0.0037,0.0696 0.0055,0.1067 0.0009,0.038 0.0027,0.0832 0.0037,0.1356 0,0.0525 0.0008,0.1186 0.0008,0.1964 0.0009,0.0786 0.0009,0.1764 0.0009,0.2921 0,0.1158 0,0.2561 0,0.4198l0 0.9551zm38.1894 0c0,0.1675 0,0.3239 -0.0009,0.4714 -0.0009,0.1465 -0.0036,0.2777 -0.0072,0.3944 -0.0036,0.1166 -0.01,0.2134 -0.019,0.2903 -0.0064,0.0526 -0.0154,0.1005 -0.0263,0.143 -0.0108,0.0416 -0.0262,0.0769 -0.047,0.1031 -0.0199,0.0272 -0.0479,0.0452 -0.0842,0.0524 -0.0243,0.0054 -0.0524,0.0109 -0.085,0.0154 -0.0325,0.0036 -0.0696,0.0064 -0.1103,0.0064 -0.0316,0 -0.0543,0.0036 -0.0679,0.0117 -0.0126,0.0073 -0.019,0.0181 -0.019,0.0317 0,0.019 0.0091,0.0325 0.0281,0.0416 0.0181,0.0082 0.0452,0.0127 0.0805,0.0127 0.0552,0 0.1158,-0.0009 0.1809,-0.0028 0.0651,-0.0017 0.1293,-0.0036 0.1927,-0.0054 0.0642,-0.0018 0.1212,-0.0036 0.1718,-0.0055 0.0517,-0.0017 0.0906,-0.0026 0.1167,-0.0026 0.0218,0 0.0598,0.0009 0.1149,0.0026 0.0552,0.0019 0.1203,0.0037 0.1963,0.0055 0.076,0.0018 0.1565,0.0037 0.2406,0.0054 0.0842,0.0019 0.1665,0.0028 0.246,0.0028 0.0353,0 0.0624,-0.0045 0.0806,-0.0127 0.019,-0.0091 0.028,-0.0226 0.028,-0.0416 0,-0.0136 -0.0054,-0.0244 -0.0163,-0.0317 -0.0109,-0.0081 -0.0271,-0.0117 -0.0488,-0.0117 -0.0226,0 -0.0488,-0.001 -0.0796,-0.0028 -0.0308,-0.0027 -0.0633,-0.0053 -0.0959,-0.0081 -0.0325,-0.0036 -0.0624,-0.0072 -0.0904,-0.0109 -0.0534,-0.0072 -0.0951,-0.0252 -0.124,-0.0524 -0.029,-0.0262 -0.0489,-0.0615 -0.0615,-0.1031 -0.0126,-0.0425 -0.0217,-0.0904 -0.0262,-0.143 -0.0091,-0.0769 -0.0154,-0.1737 -0.0191,-0.2903 -0.0036,-0.1167 -0.0062,-0.2488 -0.0072,-0.3962 -0.0009,-0.1474 -0.0009,-0.3058 -0.0009,-0.4749l0 -0.0761c0,-0.0162 0.0036,-0.0271 0.0118,-0.0343 0.0072,-0.0063 0.0181,-0.0091 0.0316,-0.0091l0.4722 0.0109c0.019,-0.0009 0.0371,0.0019 0.0534,0.0064 0.0163,0.0054 0.0308,0.0154 0.0444,0.0316 0.018,0.0208 0.046,0.0579 0.0832,0.1094 0.0371,0.0516 0.0805,0.1131 0.1303,0.1836 0.0497,0.0707 0.103,0.1457 0.1583,0.2245 0.0551,0.0786 0.1112,0.1555 0.1654,0.2315 0.1004,0.1393 0.1927,0.2606 0.276,0.3645 0.0832,0.104 0.1628,0.1927 0.2387,0.2642 0.0761,0.0714 0.1521,0.1276 0.2289,0.1691 0.0461,0.0254 0.095,0.0453 0.1457,0.0606 0.0515,0.0154 0.1113,0.0263 0.1809,0.0326 0.0697,0.0063 0.1537,0.01 0.2541,0.01l0.5156 0c0.0326,0 0.0579,-0.0037 0.076,-0.0109 0.0182,-0.0081 0.0272,-0.0226 0.0272,-0.0434 0,-0.0136 -0.0054,-0.0244 -0.0163,-0.0317 -0.0109,-0.0081 -0.0271,-0.0117 -0.0489,-0.0117 -0.0216,0 -0.0451,-0.001 -0.0696,-0.0036 -0.0253,-0.0028 -0.0524,-0.0073 -0.0823,-0.0128 -0.0208,-0.0035 -0.0498,-0.0099 -0.0868,-0.0199 -0.0371,-0.0107 -0.0814,-0.028 -0.1339,-0.0524 -0.0516,-0.0253 -0.1103,-0.0615 -0.1755,-0.1085 -0.0651,-0.047 -0.1357,-0.1104 -0.2117,-0.1882 -0.1592,-0.1691 -0.3346,-0.3727 -0.5273,-0.6124 -0.1936,-0.2388 -0.4098,-0.5111 -0.6504,-0.815 0.1818,-0.1474 0.3247,-0.2886 0.4296,-0.4234 0.105,-0.1357 0.1791,-0.2677 0.2225,-0.3979 0.0444,-0.1294 0.0652,-0.2615 0.0643,-0.3944 -0.0009,-0.0914 -0.0126,-0.1765 -0.0362,-0.2551 -0.0236,-0.0788 -0.0542,-0.1502 -0.0914,-0.2145 -0.0371,-0.0641 -0.0769,-0.1193 -0.1194,-0.1654 -0.0425,-0.0462 -0.0832,-0.0824 -0.122,-0.1086 -0.0987,-0.066 -0.2027,-0.1158 -0.313,-0.1502 -0.1105,-0.0335 -0.2235,-0.0561 -0.3402,-0.0679 -0.1158,-0.0107 -0.2307,-0.0162 -0.3455,-0.0153 -0.0434,0 -0.0978,0.0009 -0.1647,0.0027 -0.066,0.0009 -0.1366,0.0036 -0.2116,0.0054 -0.0751,0.0019 -0.1466,0.0036 -0.2153,0.0055 -0.0688,0.0017 -0.1267,0.0027 -0.1737,0.0027 -0.0289,0 -0.0706,-0.001 -0.1239,-0.0027 -0.0534,-0.0019 -0.114,-0.0036 -0.1828,-0.0055 -0.0687,-0.0018 -0.1401,-0.0045 -0.2153,-0.0054 -0.075,-0.0018 -0.1492,-0.0027 -0.2216,-0.0027 -0.0406,-0.0009 -0.0705,0.0027 -0.0904,0.01 -0.019,0.0072 -0.029,0.0198 -0.029,0.0388 0,0.0182 0.0081,0.0317 0.0235,0.0389 0.0164,0.0064 0.0389,0.01 0.0688,0.01 0.0398,0 0.0786,0.0009 0.1185,0.0037 0.0389,0.0026 0.0706,0.0071 0.0932,0.0126 0.0588,0.0118 0.1049,0.0308 0.1374,0.056 0.0327,0.0245 0.0562,0.0579 0.0707,0.0996 0.0135,0.0406 0.0225,0.0922 0.0252,0.1538 0.0018,0.0334 0.0037,0.0696 0.0054,0.1067 0.001,0.038 0.0028,0.0832 0.0037,0.1356 0,0.0525 0.0009,0.1186 0.0009,0.1964 0.0009,0.0786 0.0009,0.1764 0.0009,0.2921 0,0.1158 0,0.2561 0,0.4198l0 0.9551zm0.6404 -2.1764c0,-0.0216 0.0028,-0.0379 0.01,-0.0506 0.0073,-0.0118 0.0199,-0.0199 0.0389,-0.0253 0.0271,-0.0081 0.0652,-0.0136 0.1131,-0.0172 0.0488,-0.0037 0.1067,-0.0045 0.1745,-0.0045 0.0652,-0.0009 0.1348,0.0091 0.209,0.029 0.075,0.0199 0.1483,0.0534 0.2216,0.0985 0.0733,0.0453 0.1393,0.1068 0.1999,0.1827 0.0597,0.0769 0.1086,0.1711 0.1447,0.2841 0.0363,0.1122 0.0543,0.2451 0.0553,0.3989 -0.001,0.1475 -0.0164,0.275 -0.0471,0.3827 -0.0298,0.1067 -0.0697,0.1953 -0.1176,0.2659 -0.0489,0.0715 -0.1004,0.1258 -0.1556,0.1655 -0.0316,0.0235 -0.0632,0.0417 -0.095,0.0552 -0.0316,0.0136 -0.0705,0.0235 -0.1158,0.029 -0.0451,0.0054 -0.103,0.0081 -0.1746,0.0081 -0.0451,0 -0.0931,-0.0018 -0.1419,-0.0055 -0.0489,-0.0036 -0.0968,-0.0099 -0.1429,-0.018 -0.0471,-0.0081 -0.0887,-0.0181 -0.1276,-0.0308 -0.019,-0.0072 -0.0316,-0.0181 -0.0389,-0.0326 -0.0072,-0.0144 -0.01,-0.0361 -0.01,-0.065l0 -1.6501zm-6.5353 3.8265c0.2759,-0.001 0.531,-0.038 0.7634,-0.1122 0.2325,-0.0741 0.4396,-0.1782 0.6233,-0.313 0.1827,-0.1357 0.3383,-0.2949 0.4667,-0.4803 0.1275,-0.1846 0.2253,-0.3882 0.2922,-0.6115 0.0669,-0.2226 0.1013,-0.4587 0.1013,-0.7083 -0.0009,-0.3121 -0.0515,-0.5925 -0.1528,-0.8412 -0.1004,-0.2498 -0.2461,-0.4632 -0.4369,-0.6397 -0.19,-0.1772 -0.4207,-0.3129 -0.6903,-0.407 -0.2695,-0.0941 -0.5735,-0.1411 -0.9126,-0.142 -0.2714,0.0009 -0.5148,0.0317 -0.731,0.0932 -0.2171,0.0605 -0.4079,0.1447 -0.5735,0.2524 -0.1664,0.1066 -0.3085,0.2307 -0.4269,0.37 -0.1185,0.1402 -0.2153,0.2894 -0.2912,0.4477 -0.0752,0.1592 -0.1303,0.3202 -0.1656,0.4839 -0.0363,0.1647 -0.0534,0.3248 -0.0534,0.4804 0,0.161 0.0181,0.3247 0.0543,0.4912 0.0361,0.1664 0.0914,0.3283 0.1664,0.4875 0.0751,0.1584 0.1718,0.3067 0.2885,0.4451 0.1177,0.1384 0.257,0.2605 0.4189,0.3654 0.1619,0.1059 0.3473,0.1882 0.5563,0.247 0.2089,0.0596 0.4433,0.0904 0.7029,0.0914zm0.228 -0.2715c-0.209,-0.0009 -0.3999,-0.0352 -0.5735,-0.1022 -0.1737,-0.0669 -0.3284,-0.1619 -0.4632,-0.2848 -0.1357,-0.1231 -0.2496,-0.2688 -0.3429,-0.437 -0.0941,-0.1683 -0.1646,-0.3537 -0.2135,-0.5563 -0.0488,-0.2026 -0.0733,-0.4171 -0.0733,-0.644 0.001,-0.2696 0.0272,-0.5012 0.0788,-0.6957 0.0515,-0.1945 0.1221,-0.3564 0.2116,-0.4867 0.0897,-0.1293 0.191,-0.2325 0.3049,-0.3075 0.1149,-0.076 0.2352,-0.1303 0.3619,-0.1619 0.1257,-0.0326 0.2523,-0.0479 0.378,-0.0471 0.2244,0.0009 0.4324,0.0462 0.6242,0.1366 0.1918,0.0905 0.36,0.2217 0.5048,0.3926 0.1447,0.171 0.2568,0.3781 0.3383,0.6206 0.0805,0.2423 0.1221,0.5156 0.123,0.8204 -0.0009,0.2605 -0.0235,0.4849 -0.0669,0.6748 -0.0435,0.1891 -0.1014,0.3483 -0.1747,0.4767 -0.0733,0.1294 -0.1556,0.2334 -0.2451,0.313 -0.0904,0.0805 -0.1827,0.1411 -0.2767,0.1827 -0.0951,0.0417 -0.1846,0.0697 -0.2705,0.0851 -0.0859,0.0145 -0.1611,0.0217 -0.2252,0.0207zm-7.3979 -1.3786c0,0.1675 0,0.3239 -0.0009,0.4714 -0.0008,0.1465 -0.0036,0.2777 -0.0072,0.3944 -0.0036,0.1166 -0.01,0.2134 -0.019,0.2903 -0.0073,0.0797 -0.0218,0.1466 -0.0443,0.2 -0.0226,0.0533 -0.0597,0.0868 -0.113,0.0985 -0.0245,0.0054 -0.0526,0.0109 -0.0852,0.0154 -0.0325,0.0036 -0.0695,0.0064 -0.1103,0.0064 -0.0316,0 -0.0543,0.0036 -0.0679,0.0117 -0.0126,0.0073 -0.0189,0.0181 -0.0189,0.0317 0,0.019 0.009,0.0325 0.028,0.0416 0.0182,0.0082 0.0453,0.0127 0.0806,0.0127 0.0551,0 0.1158,-0.0009 0.1808,-0.0028 0.0652,-0.0017 0.1312,-0.0036 0.1955,-0.0054 0.0651,-0.0018 0.1248,-0.0036 0.179,-0.0055 0.0534,-0.0017 0.0968,-0.0026 0.1285,-0.0026 0.0516,0 0.1211,0.0018 0.2089,0.0045 0.0878,0.0027 0.1864,0.0045 0.2968,0.0073 0.1103,0.0026 0.2261,0.0045 0.3464,0.0045 0.0307,0 0.0551,-0.0045 0.0741,-0.0127 0.019,-0.0091 0.0281,-0.0226 0.029,-0.0416 0,-0.0136 -0.0072,-0.0244 -0.0207,-0.0317 -0.0145,-0.0081 -0.0363,-0.0117 -0.0662,-0.0117 -0.0271,0 -0.0579,-0.001 -0.0913,-0.0028 -0.0326,-0.0027 -0.0651,-0.0053 -0.0976,-0.0081 -0.0327,-0.0036 -0.0616,-0.0072 -0.0878,-0.0109 -0.0534,-0.0072 -0.0949,-0.0244 -0.1239,-0.0515 -0.0289,-0.0271 -0.0489,-0.0615 -0.0616,-0.1031 -0.0126,-0.0407 -0.0216,-0.0877 -0.0262,-0.1385 -0.009,-0.0786 -0.0154,-0.1763 -0.019,-0.294 -0.0037,-0.1175 -0.0063,-0.2496 -0.0072,-0.3961 -0.001,-0.1475 -0.001,-0.3039 -0.001,-0.4714l0 -2.2251 0.6839 0.0162c0.1601,0.0045 0.2859,0.0218 0.3782,0.0525 0.0932,0.0298 0.1592,0.0678 0.199,0.1122 0.0397,0.0452 0.0615,0.0913 0.0632,0.1393l0.0055 0.0597c0.0027,0.0397 0.0073,0.0679 0.0154,0.085 0.009,0.0163 0.0235,0.0235 0.0443,0.0235 0.0163,0 0.0271,-0.0081 0.0344,-0.0235 0.0072,-0.0145 0.0117,-0.0362 0.0145,-0.0633 0,-0.0371 0.0009,-0.0841 0.0026,-0.142 0.0019,-0.0579 0.0036,-0.1195 0.0055,-0.1827 0.0018,-0.0643 0.0036,-0.124 0.0054,-0.1782 0.0019,-0.0543 0.0027,-0.0968 0.0027,-0.1267 0.0009,-0.0408 -0.0017,-0.0697 -0.0072,-0.0878 -0.0054,-0.018 -0.0181,-0.0261 -0.0362,-0.0261 -0.0108,0 -0.0271,0.0026 -0.0506,0.0071 -0.0235,0.0055 -0.0553,0.0119 -0.0959,0.02 -0.0398,0.0054 -0.0914,0.0117 -0.1529,0.0171 -0.0606,0.0064 -0.1347,0.009 -0.2216,0.01l-2.1493 0c-0.0597,0 -0.1221,-0.001 -0.1855,-0.0036 -0.0632,-0.0019 -0.1257,-0.0055 -0.1863,-0.0091 -0.0605,-0.0045 -0.1176,-0.009 -0.1709,-0.0144 -0.0443,-0.0046 -0.0815,-0.0119 -0.1113,-0.0218 -0.0289,-0.01 -0.0533,-0.0198 -0.0723,-0.029 -0.019,-0.009 -0.0354,-0.0135 -0.0498,-0.0144 -0.0164,0 -0.029,0.0082 -0.0389,0.0253 -0.01,0.0164 -0.0181,0.0425 -0.0262,0.0778 -0.0028,0.01 -0.0073,0.0344 -0.0163,0.0733 -0.0081,0.0389 -0.0172,0.086 -0.028,0.1403 -0.0119,0.0541 -0.0218,0.1094 -0.0326,0.1654 -0.0109,0.0562 -0.0191,0.1068 -0.0263,0.1511 -0.0073,0.0444 -0.0109,0.0751 -0.0109,0.094 0,0.0299 0.0028,0.0517 0.01,0.0662 0.0073,0.0135 0.0199,0.0207 0.0389,0.0207 0.0163,0 0.029,-0.0054 0.038,-0.0162 0.009,-0.0109 0.0163,-0.0272 0.0218,-0.0489 0.0054,-0.0218 0.0152,-0.0488 0.0297,-0.0805 0.0145,-0.0326 0.0353,-0.0687 0.0625,-0.1095 0.0262,-0.0397 0.0606,-0.0696 0.1031,-0.0914 0.0416,-0.0216 0.0968,-0.037 0.1656,-0.047 0.0678,-0.0099 0.1537,-0.0163 0.2577,-0.019l0.8087 -0.0216 0 2.2251zm-5.5795 -0.9551c0,-0.1637 0,-0.304 0,-0.4198 0,-0.1157 0,-0.2135 0.0009,-0.2921 0,-0.0778 0.001,-0.1439 0.0019,-0.1964 0,-0.0524 0.0017,-0.0976 0.0027,-0.1356 0.0018,-0.0371 0.0036,-0.0733 0.0054,-0.1067 0.0036,-0.0942 0.0208,-0.1665 0.0498,-0.2162 0.0289,-0.0489 0.0795,-0.0806 0.151,-0.0932 0.0335,-0.0055 0.0697,-0.01 0.1077,-0.0126 0.0389,-0.0028 0.0733,-0.0037 0.104,-0.0037 0.0326,0 0.057,-0.0036 0.0732,-0.01 0.0164,-0.0072 0.0245,-0.0207 0.0245,-0.0389 0,-0.019 -0.01,-0.0316 -0.029,-0.0388 -0.019,-0.0073 -0.047,-0.01 -0.085,-0.01 -0.0543,0 -0.1157,0.0009 -0.1864,0.0027 -0.0696,0.0009 -0.141,0.0036 -0.2134,0.0054 -0.0714,0.0019 -0.1375,0.0036 -0.1981,0.0055 -0.0597,0.0017 -0.1068,0.0027 -0.1402,0.0027 -0.0371,0 -0.085,-0.001 -0.142,-0.0027 -0.0571,-0.0019 -0.1203,-0.0036 -0.1891,-0.0055 -0.0687,-0.0018 -0.1383,-0.0045 -0.209,-0.0054 -0.0714,-0.0018 -0.1393,-0.0027 -0.2035,-0.0027 -0.0407,-0.0009 -0.0705,0.0027 -0.0905,0.01 -0.019,0.0072 -0.0289,0.0198 -0.0289,0.0388 0,0.0182 0.0082,0.0317 0.0235,0.0389 0.0163,0.0064 0.0389,0.01 0.0688,0.01 0.0353,0 0.0688,0.0009 0.0994,0.0037 0.0308,0.0026 0.0579,0.0071 0.0797,0.0126 0.0588,0.0118 0.1049,0.0308 0.1374,0.056 0.0327,0.0245 0.0562,0.0579 0.0707,0.0996 0.0135,0.0406 0.0226,0.0922 0.0252,0.1538 0.0019,0.0334 0.0037,0.0696 0.0055,0.1067 0.0009,0.038 0.0027,0.0832 0.0037,0.1356 0,0.0525 0.0008,0.1186 0.0008,0.1964 0.0009,0.0786 0.0009,0.1764 0.0009,0.2921 0,0.1158 0,0.2561 0,0.4198l0 0.9551c0,0.1675 0,0.3239 -0.0009,0.4714 -0.0008,0.1465 -0.0036,0.2777 -0.0072,0.3944 -0.0036,0.1166 -0.01,0.2134 -0.019,0.2903 -0.0064,0.0526 -0.0154,0.1005 -0.0263,0.1421 -0.0107,0.0425 -0.0261,0.0769 -0.047,0.104 -0.0199,0.0272 -0.0479,0.0452 -0.0842,0.0524 -0.0243,0.0054 -0.0524,0.0109 -0.085,0.0154 -0.0325,0.0036 -0.0695,0.0064 -0.1103,0.0064 -0.0316,0 -0.0543,0.0036 -0.0679,0.0117 -0.0126,0.0073 -0.0189,0.0181 -0.0189,0.0317 0,0.019 0.009,0.0325 0.028,0.0416 0.0182,0.0082 0.0452,0.0127 0.0806,0.0127 0.0551,-0.0009 0.1158,-0.0028 0.1808,-0.0054 0.066,-0.0037 0.1303,-0.0055 0.1936,-0.0055 0.066,-0.0028 0.1266,-0.0045 0.1809,-0.0045 0.0552,-0.0009 0.0977,-0.0009 0.1285,-0.0009 0.0741,0 0.1456,0.0009 0.2162,0.0018 0.0705,0.0008 0.142,0.0027 0.2153,0.0054 0.0723,0.0027 0.1501,0.0054 0.2306,0.0091 0.1203,0.0027 0.2551,0.0063 0.4034,0.01 0.1484,0.0035 0.3203,0.0062 0.5139,0.0062 0.0696,0 0.1256,-0.0017 0.1683,-0.0062 0.0415,-0.0037 0.0741,-0.0119 0.0958,-0.0227 0.0226,-0.01 0.0397,-0.0253 0.0506,-0.0444 0.0109,-0.019 0.0199,-0.0434 0.0272,-0.0732 0.0091,-0.0326 0.0172,-0.0723 0.0253,-0.1195 0.0082,-0.0479 0.0154,-0.0976 0.0217,-0.151 0.0072,-0.0533 0.0136,-0.104 0.0181,-0.1537 0.0055,-0.0489 0.009,-0.0914 0.0118,-0.1276 0.0027,-0.0352 0.0045,-0.0597 0.0045,-0.0724 0.001,-0.0325 -0.0018,-0.056 -0.0073,-0.0705 -0.0054,-0.0145 -0.018,-0.0218 -0.0361,-0.0218 -0.0208,0 -0.0362,0.0082 -0.0443,0.0227 -0.0081,0.0145 -0.0136,0.0344 -0.0154,0.0588 -0.0036,0.0352 -0.0127,0.0732 -0.0271,0.1149 -0.0136,0.0406 -0.0308,0.0805 -0.0507,0.1175 -0.02,0.038 -0.0416,0.0688 -0.0634,0.0932 -0.0451,0.048 -0.0985,0.0833 -0.1609,0.1049 -0.0624,0.0218 -0.1331,0.0354 -0.2117,0.0399 -0.0787,0.0054 -0.1665,0.0081 -0.2624,0.0072 -0.1393,0 -0.2523,-0.0046 -0.3382,-0.0127 -0.0851,-0.009 -0.152,-0.0217 -0.2009,-0.0398 -0.0489,-0.0171 -0.0886,-0.0397 -0.1175,-0.0669 -0.0372,-0.0326 -0.0643,-0.0959 -0.0806,-0.1918 -0.0162,-0.0949 -0.0253,-0.2234 -0.029,-0.3853 -0.0036,-0.1619 -0.0054,-0.3583 -0.0045,-0.5899l0 -0.9551zm-5.5634 1.1452c0.0136,0 0.0245,0.0026 0.0335,0.009 0.0081,0.0054 0.0154,0.0154 0.0208,0.0289l0.4341 1.1181c0.0128,0.0335 0.0128,0.0606 0,0.0833 -0.0117,0.0216 -0.028,0.0361 -0.0488,0.0415 -0.0271,0.0027 -0.0461,0.0073 -0.0578,0.0145 -0.0127,0.0073 -0.0182,0.0181 -0.0182,0.0344 0.0009,0.0181 0.0154,0.0289 0.0453,0.0335 0.0289,0.0045 0.0678,0.0081 0.1175,0.0099 0.1457,0.0036 0.284,0.0064 0.4152,0.0072 0.1312,0.0018 0.2497,0.0028 0.3547,0.0028 0.104,0.0009 0.1899,0.0009 0.2559,0.0009 0.0661,0 0.1176,-0.0019 0.1539,-0.0045 0.0361,-0.0028 0.0615,-0.0082 0.0759,-0.0163 0.0136,-0.0081 0.0208,-0.019 0.02,-0.0335 0,-0.0181 -0.0064,-0.0308 -0.019,-0.0362 -0.0128,-0.0054 -0.0299,-0.0082 -0.0517,-0.0072 -0.0325,0 -0.0686,-0.0019 -0.1075,-0.0045 -0.0389,-0.0036 -0.0797,-0.0091 -0.1203,-0.0173 -0.0282,-0.0053 -0.0598,-0.0171 -0.0942,-0.0352 -0.0334,-0.0172 -0.0705,-0.047 -0.1103,-0.0878 -0.0399,-0.0407 -0.0824,-0.0986 -0.1275,-0.1737 -0.0453,-0.075 -0.0942,-0.1736 -0.1457,-0.2949 -0.0434,-0.104 -0.0941,-0.2261 -0.152,-0.3663 -0.0579,-0.1403 -0.1203,-0.2912 -0.1863,-0.454 -0.0669,-0.1638 -0.1357,-0.332 -0.2062,-0.5057 -0.0707,-0.1737 -0.1403,-0.3464 -0.21,-0.5184 -0.0696,-0.1718 -0.1365,-0.3365 -0.1998,-0.4938 -0.0643,-0.1575 -0.1222,-0.3013 -0.1756,-0.4316 -0.0524,-0.1303 -0.0976,-0.2406 -0.1347,-0.331 -0.038,-0.0905 -0.0642,-0.1557 -0.0814,-0.1936 -0.0262,-0.0615 -0.0497,-0.1067 -0.0696,-0.1339 -0.0209,-0.0271 -0.0425,-0.0406 -0.0662,-0.0398 -0.0261,-0.0008 -0.0496,0.0154 -0.0714,0.0498 -0.0226,0.0334 -0.0489,0.0895 -0.0805,0.1673l-1.3622 3.3651c-0.0354,0.0904 -0.0724,0.1709 -0.1122,0.2397 -0.0399,0.0696 -0.0878,0.1257 -0.1429,0.1682 -0.0553,0.0425 -0.1239,0.0696 -0.2063,0.0805 -0.0227,0.0028 -0.0507,0.0054 -0.0823,0.0073 -0.0317,0.0026 -0.0607,0.0036 -0.0859,0.0036 -0.0218,0 -0.0381,0.0026 -0.0489,0.0099 -0.0108,0.0064 -0.0163,0.0172 -0.0163,0.0335 0,0.0208 0.0081,0.0353 0.0254,0.0434 0.0162,0.0072 0.0425,0.0109 0.0778,0.0109 0.0714,0 0.141,-0.0009 0.2107,-0.0028 0.0696,-0.0017 0.1339,-0.0036 0.1927,-0.0054 0.0597,-0.0018 0.1103,-0.0036 0.1511,-0.0055 0.0416,-0.0017 0.0705,-0.0026 0.0859,-0.0026 0.057,0 0.1185,0.0018 0.1854,0.0045 0.0669,0.0027 0.1339,0.0045 0.2009,0.0073 0.0677,0.0026 0.1301,0.0045 0.189,0.0045 0.0298,0 0.0524,-0.0037 0.0687,-0.0109 0.0154,-0.0081 0.0235,-0.0226 0.0235,-0.0434 0.001,-0.0163 -0.0045,-0.0271 -0.0163,-0.0335 -0.0117,-0.0073 -0.0334,-0.0099 -0.0651,-0.0099l-0.0814 0c-0.0823,-0.001 -0.1402,-0.0164 -0.1718,-0.047 -0.0317,-0.0308 -0.0471,-0.0715 -0.0453,-0.1213 0,-0.0334 0.0072,-0.0804 0.0209,-0.1393 0.0135,-0.0588 0.0334,-0.1231 0.0605,-0.1917l0.2931 -0.7436c0.0054,-0.0164 0.0109,-0.0271 0.0181,-0.0344 0.0073,-0.0064 0.0172,-0.009 0.0308,-0.009l1.2103 0zm-1.1017 -0.2715c-0.0109,0 -0.0182,-0.0035 -0.0209,-0.0107 -0.0036,-0.0073 -0.0036,-0.0164 -0.0009,-0.0272l0.4993 -1.3298c0.0028,-0.0117 0.0073,-0.0226 0.0127,-0.0325 0.0055,-0.01 0.0117,-0.0154 0.02,-0.0162 0.0081,0.0008 0.0135,0.0062 0.018,0.0162 0.0036,0.0099 0.0064,0.0208 0.009,0.0325l0.4886 1.3352c0.0026,0.0081 0.0026,0.0163 -0.001,0.0226 -0.0045,0.0064 -0.0127,0.0099 -0.0262,0.0099l-0.9986 0zm-6.2689 0.0814c0,0.1675 0,0.3239 -0.0009,0.4714 -0.0009,0.1465 -0.0036,0.2777 -0.0072,0.3944 -0.0036,0.1166 -0.01,0.2134 -0.019,0.2903 -0.0064,0.0526 -0.0154,0.1005 -0.0263,0.1421 -0.0108,0.0425 -0.0262,0.0769 -0.047,0.104 -0.0199,0.0272 -0.048,0.0452 -0.0842,0.0524 -0.0243,0.0054 -0.0524,0.0109 -0.085,0.0154 -0.0325,0.0036 -0.0696,0.0064 -0.1103,0.0064 -0.0316,0 -0.0543,0.0036 -0.0679,0.0117 -0.0126,0.0073 -0.019,0.0181 -0.019,0.0317 0,0.019 0.0091,0.0325 0.028,0.0416 0.0182,0.0082 0.0453,0.0127 0.0806,0.0127 0.0552,-0.0009 0.1158,-0.0028 0.1809,-0.0054 0.066,-0.0037 0.1303,-0.0055 0.1936,-0.0055 0.066,-0.0028 0.1266,-0.0045 0.1809,-0.0045 0.0552,-0.0009 0.0977,-0.0009 0.1285,-0.0009 0.0805,0 0.1655,0.0009 0.2559,0.0036 0.0905,0.0027 0.1927,0.0073 0.3085,0.0127 0.1157,0.0027 0.2505,0.0063 0.4043,0.01 0.1538,0.0035 0.332,0.0062 0.5346,0.0062 0.0679,0.0009 0.1212,-0.0009 0.1592,-0.0054 0.038,-0.0045 0.0669,-0.0162 0.0869,-0.0362 0.0199,-0.0199 0.0353,-0.0533 0.0471,-0.0994 0.0072,-0.0282 0.0145,-0.0697 0.0226,-0.1222 0.0081,-0.0534 0.0154,-0.1113 0.0225,-0.1727 0.0073,-0.0625 0.0136,-0.1213 0.0181,-0.1765 0.0045,-0.0551 0.0073,-0.0985 0.0073,-0.1311 0.0009,-0.0281 -0.0009,-0.0507 -0.0054,-0.0688 -0.0046,-0.019 -0.0172,-0.028 -0.038,-0.0289 -0.0181,0 -0.0317,0.0054 -0.0398,0.0181 -0.0082,0.0127 -0.0154,0.0334 -0.02,0.0633 -0.018,0.1103 -0.0461,0.1963 -0.0831,0.2596 -0.0381,0.0633 -0.0914,0.1103 -0.1611,0.1421 -0.0479,0.0216 -0.1022,0.0361 -0.1637,0.0461 -0.0606,0.009 -0.1222,0.0144 -0.1827,0.0163 -0.0606,0.0026 -0.1158,0.0026 -0.1637,0.0026 -0.1376,0.001 -0.2488,-0.0054 -0.3339,-0.018 -0.085,-0.0136 -0.1501,-0.0363 -0.1953,-0.0697 -0.0453,-0.0326 -0.076,-0.0796 -0.0941,-0.1393 -0.0172,-0.0597 -0.0262,-0.1357 -0.0281,-0.2288 -0.0009,-0.0326 -0.0017,-0.076 -0.0017,-0.1303 -0.0009,-0.0543 -0.0009,-0.1149 -0.0009,-0.181 0.0009,-0.066 0.0009,-0.132 0.0009,-0.1998 0.0008,-0.0669 0.0008,-0.1294 0.0008,-0.1873 0.0009,-0.0579 0.0009,-0.1049 0.0009,-0.143l0 -0.4287c0,-0.0162 0.0019,-0.0298 0.0064,-0.0397 0.0045,-0.0091 0.0126,-0.0145 0.0262,-0.0145 0.0272,0 0.067,0 0.1203,0.0009 0.0534,0 0.1122,0.0008 0.1774,0.0017 0.066,0.001 0.1302,0.0019 0.1944,0.0028 0.0642,0.0018 0.1221,0.0027 0.1719,0.0045 0.0497,0.0018 0.085,0.0036 0.1067,0.0063 0.0669,0.0073 0.1203,0.0208 0.162,0.0407 0.0415,0.019 0.0733,0.0435 0.0958,0.0724 0.0226,0.029 0.038,0.0624 0.0461,0.0986 0.0082,0.0353 0.0128,0.0706 0.0154,0.1041 0.0019,0.0334 0.0045,0.0641 0.0064,0.0913 0,0.0136 0.0036,0.0254 0.01,0.0344 0.0071,0.009 0.0199,0.0145 0.0389,0.0145 0.0162,-0.001 0.0271,-0.0064 0.0342,-0.0173 0.0073,-0.0107 0.0109,-0.0244 0.0128,-0.0397 0.0017,-0.0163 0.0017,-0.0317 0.0017,-0.0462 0,-0.01 0.0009,-0.0299 0.0028,-0.0579 0.0018,-0.028 0.0036,-0.0605 0.0064,-0.0977 0.0017,-0.0371 0.0045,-0.0741 0.0071,-0.1112 0.0019,-0.0362 0.0036,-0.0688 0.0055,-0.0968 0.0072,-0.0913 0.0144,-0.1646 0.0208,-0.2189 0.0063,-0.0543 0.0117,-0.095 0.0162,-0.1213 0.0045,-0.0271 0.0064,-0.0461 0.0064,-0.056 0,-0.0163 -0.0036,-0.0271 -0.0109,-0.0344 -0.0072,-0.0064 -0.0162,-0.009 -0.0271,-0.009 -0.0127,0 -0.0263,0.0063 -0.0389,0.019 -0.0135,0.0126 -0.0289,0.0298 -0.0479,0.0515 -0.0245,0.0263 -0.057,0.0453 -0.0995,0.057 -0.0426,0.0118 -0.096,0.0199 -0.1611,0.0244 -0.0262,0.0018 -0.0687,0.0037 -0.1266,0.0054 -0.0579,0.001 -0.1249,0.0028 -0.1981,0.0028 -0.0742,0.0008 -0.1484,0.0017 -0.2225,0.0017 -0.0733,0.001 -0.1393,0.001 -0.1972,0.001 -0.0571,0 -0.0986,0 -0.124,0 -0.0162,0 -0.0262,-0.0055 -0.0316,-0.0154 -0.0045,-0.0108 -0.0073,-0.0253 -0.0064,-0.0444l0 -1.373c0,-0.019 0.0028,-0.0327 0.0091,-0.0417 0.0054,-0.009 0.0154,-0.0126 0.0289,-0.0126 0.0227,0 0.0607,0 0.1131,0.0009 0.0525,0.0009 0.1122,0.0017 0.1782,0.0036 0.067,0.0009 0.1339,0.0026 0.1999,0.0045 0.0661,0.0019 0.124,0.0036 0.1746,0.0064 0.0507,0.0017 0.085,0.0036 0.1049,0.0062 0.0896,0.0109 0.1583,0.0254 0.2062,0.0434 0.0489,0.0182 0.0842,0.0399 0.1068,0.0652 0.0227,0.0254 0.0398,0.0543 0.0507,0.0869 0.009,0.0216 0.0162,0.0461 0.0207,0.0714 0.0046,0.0244 0.0083,0.0489 0.0092,0.0705 0.0017,0.0227 0.0027,0.0399 0.0027,0.0534 0,0.0244 0.0035,0.0434 0.0099,0.0562 0.0072,0.0126 0.0199,0.0198 0.0389,0.0198 0.019,-0.0008 0.0316,-0.0072 0.0398,-0.0198 0.0072,-0.0128 0.0127,-0.0254 0.0145,-0.0399 0.0027,-0.0172 0.0053,-0.0425 0.0081,-0.0759 0.0027,-0.0335 0.0055,-0.0688 0.0072,-0.1077 0.0028,-0.038 0.0045,-0.0733 0.0073,-0.1049 0.0017,-0.0317 0.0036,-0.0552 0.0045,-0.0697 0.0055,-0.0823 0.0117,-0.1465 0.0181,-0.1944 0.0073,-0.0472 0.0127,-0.0824 0.018,-0.1059 0.0046,-0.0236 0.0073,-0.0407 0.0073,-0.0524 0,-0.0137 -0.0018,-0.0254 -0.0063,-0.0344 -0.0045,-0.009 -0.0127,-0.0145 -0.0262,-0.0145 -0.0137,0.0008 -0.0281,0.0036 -0.0434,0.0091 -0.0154,0.0054 -0.0299,0.009 -0.0434,0.0126 -0.0227,0.0054 -0.0534,0.0109 -0.0942,0.0163 -0.0406,0.0054 -0.0868,0.0109 -0.1393,0.0162 -0.018,0.0009 -0.0596,0.0019 -0.1239,0.0019 -0.0642,0.0009 -0.1429,0.0018 -0.2351,0.0018 -0.0923,0.0008 -0.1901,0.0008 -0.2931,0.0008 -0.1032,0 -0.2026,0.001 -0.2985,0.001 -0.096,0 -0.1801,0 -0.2524,0 -0.0724,0 -0.123,0 -0.1538,0 -0.0389,0 -0.0878,-0.001 -0.1466,-0.0036 -0.0587,-0.0019 -0.1239,-0.0046 -0.1953,-0.0072 -0.0688,0 -0.1403,-0.0009 -0.2153,-0.0028 -0.0761,-0.0018 -0.1502,-0.0027 -0.2244,-0.0027 -0.0406,0 -0.0705,0.0027 -0.0904,0.01 -0.019,0.0072 -0.029,0.0198 -0.029,0.0388 0,0.0182 0.0081,0.0317 0.0235,0.0389 0.0164,0.0064 0.0389,0.01 0.0688,0.01 0.0398,0 0.0786,0.0009 0.1185,0.0037 0.0389,0.0026 0.0706,0.0071 0.0932,0.0126 0.0588,0.0126 0.1049,0.0308 0.1374,0.056 0.0327,0.0254 0.0562,0.0579 0.0707,0.0996 0.0135,0.0416 0.0225,0.0922 0.0252,0.1538 0.0018,0.0334 0.0037,0.0696 0.0054,0.1067 0.001,0.038 0.0028,0.0832 0.0037,0.1356 0,0.0525 0.0009,0.1186 0.0009,0.1972 0.0009,0.0778 0.0009,0.1756 0.0009,0.2913 0,0.1158 0,0.2561 0,0.4198l0 0.9551zm-5.9707 -2.1764c0,-0.0216 0.0028,-0.0379 0.01,-0.0506 0.0073,-0.0118 0.0199,-0.0199 0.0389,-0.0253 0.0271,-0.0081 0.0652,-0.0136 0.1131,-0.0172 0.0488,-0.0037 0.1067,-0.0045 0.1745,-0.0045 0.0652,-0.0009 0.1348,0.0091 0.209,0.029 0.0751,0.0199 0.1484,0.0534 0.2217,0.0985 0.0733,0.0453 0.1393,0.1068 0.1998,0.1827 0.0598,0.0769 0.1086,0.1711 0.1448,0.2841 0.0362,0.1122 0.0543,0.2451 0.0552,0.3989 -0.0009,0.1475 -0.0163,0.275 -0.047,0.3827 -0.0299,0.1067 -0.0697,0.1953 -0.1177,0.2659 -0.0488,0.0715 -0.1004,0.1258 -0.1556,0.1655 -0.0316,0.0235 -0.0632,0.0417 -0.0949,0.0552 -0.0316,0.0136 -0.0706,0.0235 -0.1158,0.029 -0.0452,0.0054 -0.1031,0.0081 -0.1746,0.0081 -0.0452,0 -0.0931,-0.0018 -0.142,-0.0055 -0.0489,-0.0036 -0.0968,-0.0099 -0.1429,-0.018 -0.0471,-0.0081 -0.0887,-0.0181 -0.1276,-0.0308 -0.019,-0.0072 -0.0316,-0.0181 -0.0389,-0.0326 -0.0072,-0.0144 -0.01,-0.0361 -0.01,-0.065l0 -1.6501z" class="fil1"/>
 </g>
 <g id="Layer-4">
  <metadata id="CorelCorpID_3Corel-Layer"/>
  <path d="M64.7716 52.3094c0.1706,-0.0016 0.3219,-0.0382 0.4525,-0.1115 0.1321,-0.0732 0.2357,-0.172 0.3122,-0.2963 0.0748,-0.1241 0.113,-0.266 0.1147,-0.4237 -0.0017,-0.1642 -0.0399,-0.309 -0.1147,-0.4349 -0.0765,-0.1258 -0.1801,-0.2245 -0.3122,-0.2964 -0.1306,-0.0716 -0.2819,-0.1082 -0.4525,-0.1098 -0.1704,0.0016 -0.3217,0.0382 -0.4522,0.1098 -0.1324,0.0719 -0.2358,0.1706 -0.3123,0.2964 -0.0748,0.1259 -0.113,0.2707 -0.1146,0.4349 0.0016,0.1577 0.0398,0.2996 0.1146,0.4237 0.0765,0.1243 0.1799,0.2231 0.3123,0.2963 0.1305,0.0733 0.2818,0.1099 0.4522,0.1115zm0.0097 -0.1623c-0.1419,-0.0017 -0.2644,-0.0304 -0.3696,-0.0878 -0.1068,-0.0557 -0.1895,-0.1354 -0.2484,-0.2374 -0.059,-0.1004 -0.0878,-0.2183 -0.0894,-0.3536 0.0016,-0.1384 0.0304,-0.2563 0.0894,-0.3567 0.0589,-0.0988 0.14,-0.1769 0.2452,-0.231 0.1036,-0.0543 0.2247,-0.0812 0.3631,-0.0812 0.1386,0 0.2597,0.0269 0.3633,0.0812 0.105,0.0541 0.1863,0.1322 0.2453,0.231 0.0589,0.1004 0.0877,0.2183 0.0893,0.3567 -0.0016,0.1353 -0.0304,0.2532 -0.0893,0.3536 -0.059,0.102 -0.1386,0.1817 -0.242,0.2374 -0.1036,0.0574 -0.2215,0.0861 -0.3569,0.0878zm-0.3728 -0.6024c0,0.0654 0.0016,0.1179 0.0032,0.1561 0.0016,0.0382 0.0016,0.0702 -0.0032,0.0926 -0.0032,0.0269 -0.0111,0.0444 -0.024,0.0493 -0.0126,0.0064 -0.0398,0.0096 -0.0812,0.008 -0.0192,0 -0.0286,0.0094 -0.0286,0.0286 0.0016,0.0145 0.0111,0.0239 0.0272,0.0304 0.0159,0.0046 0.0285,0.0078 0.0398,0.0078l0.0477 0c0.008,0 0.0207,-0.0016 0.0398,-0.0032 0.0191,-0.0014 0.0382,-0.0014 0.0573,-0.003 0.0208,-0.0016 0.035,-0.0033 0.0463,-0.0033 0.0253,0 0.0557,0.0017 0.0875,0.0049 0.032,0.003 0.0541,0.003 0.0654,0.0046l0.0382 0c0.0095,0 0.0191,-0.0032 0.027,-0.0078 0.0064,-0.0065 0.0113,-0.0159 0.0113,-0.0304 0,-0.0143 -0.0017,-0.0224 -0.0065,-0.0254 -0.0048,-0.0032 -0.0127,-0.0032 -0.0223,-0.0032 -0.0159,0 -0.0318,0 -0.0509,-0.0016 -0.0191,0 -0.0334,-0.0032 -0.0447,-0.0081 -0.0032,-0.0032 -0.0062,-0.0078 -0.0094,-0.0175 -0.0032,-0.011 -0.0049,-0.0285 -0.0065,-0.0573 -0.0016,-0.0272 -0.0032,-0.07 -0.0032,-0.1257l0 -0.0861 0.1147 0 0.134 0.1816c0.0476,0.062 0.0923,0.1067 0.1322,0.1322 0.0414,0.0256 0.0812,0.0398 0.1211,0.0447 0.0382,0.0046 0.0778,0.0062 0.1192,0.0046 0.0367,0 0.0606,-0.0032 0.0719,-0.0078 0.011,-0.0065 0.0159,-0.0159 0.0143,-0.0304 0,-0.0192 -0.0097,-0.0286 -0.0288,-0.0286 -0.0062,0.0016 -0.0127,-0.0016 -0.0221,-0.0048 -0.0097,-0.0049 -0.0256,-0.0175 -0.0479,-0.0382 -0.0207,-0.0208 -0.0509,-0.0542 -0.0924,-0.1004l-0.172 -0.2008c0.0797,-0.0557 0.1338,-0.1066 0.1608,-0.1513 0.0287,-0.0431 0.0414,-0.0891 0.0398,-0.1354 -0.0016,-0.0748 -0.0269,-0.1322 -0.0732,-0.1688 -0.0463,-0.0366 -0.102,-0.0621 -0.1656,-0.0732 -0.0654,-0.0113 -0.1259,-0.0177 -0.1817,-0.0161 -0.0462,0 -0.0828,0.0016 -0.113,0.0048 -0.0304,0.0032 -0.0654,0.0049 -0.1068,0.0049 -0.035,0 -0.0684,-0.0017 -0.0988,-0.0049 -0.0318,-0.0032 -0.0525,-0.0048 -0.0636,-0.0048l-0.0382 0c-0.0145,0 -0.0256,0.0032 -0.0352,0.008 -0.0079,0.0065 -0.0127,0.0159 -0.0127,0.0302 0,0.0097 0.0016,0.0161 0.0064,0.0207 0.003,0.0049 0.0079,0.0081 0.0127,0.0081 0.0382,-0.0016 0.067,0.0032 0.0861,0.011 0.0191,0.0097 0.0286,0.0272 0.0286,0.056l0 0.2388 0 0.2102zm0.2102 -0.4587c0.0113,-0.0094 0.0272,-0.0143 0.0463,-0.0175 0.0207,-0.0016 0.0334,-0.0016 0.0398,-0.0016 0.0684,0.0016 0.1211,0.0223 0.161,0.0622 0.0382,0.0398 0.0589,0.0891 0.0589,0.148 0,0.0383 -0.0097,0.0719 -0.0255,0.0988 -0.0159,0.0288 -0.0366,0.0495 -0.0606,0.0638 -0.0143,0.0094 -0.0288,0.0143 -0.0431,0.0159 -0.0142,0.0032 -0.0285,0.0032 -0.043,0.0032 -0.0207,0 -0.0445,-0.0032 -0.07,-0.008 -0.0272,-0.0047 -0.0479,-0.0111 -0.0638,-0.0208l0 -0.344z" class="fil1"/>
 </g>
 <g id="Layer-5">
  <metadata id="CorelCorpID_4Corel-Layer"/>
  <path d="M68.4886 52.5684c7.0309,0.0696 11.4058,0.1672 11.4058,0.2755 0,0.1083 -4.3749,0.2059 -11.4058,0.2755l0 -0.551zm-51.7059 0.551c-7.0308,-0.0696 -11.4057,-0.1672 -11.4057,-0.2755 0,-0.1083 4.3749,-0.2059 11.4057,-0.2755l0 0.551z" class="fil2"/>
 </g>
 <g id="Layer-6">
  <metadata id="CorelCorpID_5Corel-Layer"/>
  <path d="M35.682 17.2865c-0.7777,-1.6495 -1.9826,-2.8828 -3.8272,-3.6273 -2.3306,2.5331 -2.5931,5.3524 -0.7251,7.8282 -0.5855,-2.0107 -0.23,-4.1187 1.0465,-5.9561l0.1602 -0.2304 0.257 0.1123c1.2545,0.5478 2.2019,1.0814 3.0886,1.8733z" class="fil3"/>
 </g>
 <g id="Layer-7">
  <metadata id="CorelCorpID_6Corel-Layer"/>
  <path d="M53.443 21.4878c1.8684,-2.476 1.6055,-5.2955 -0.7252,-7.8286 -1.8446,0.7445 -3.0494,1.9778 -3.8271,3.6276 0.8864,-0.7921 1.8342,-1.3258 3.0885,-1.8736l0.2572 -0.1123 0.1601 0.2305c1.2766,1.8373 1.6318,3.9453 1.0465,5.9564z" class="fil3"/>
 </g>
 <g id="Layer-8">
  <metadata id="CorelCorpID_7Corel-Layer"/>
  <path d="M60.8359 20.9775c-3.6434,0.1063 -6.7372,1.425 -9.3603,3.7572 2.1826,-0.9145 4.3597,-1.4155 6.8518,-1.2786l0.2871 0.0157 0.0335 0.2855c0.614,5.2467 -1.8101,8.3323 -5.6207,11.0427 2.4852,-0.7862 4.9226,-2.0248 6.4343,-4.1565 1.9712,-2.7795 1.9092,-6.4347 1.3743,-9.666z" class="fil4"/>
 </g>
 <g id="Layer-9">
  <metadata id="CorelCorpID_8Corel-Layer"/>
  <path d="M23.7369 20.9775c-0.5351,3.2313 -0.5968,6.8867 1.3743,9.666 1.5118,2.1317 3.949,3.3703 6.4343,4.1565 -3.8107,-2.7104 -6.2349,-5.796 -5.6209,-11.0427l0.0335 -0.2855 0.2874 -0.0157c2.4921,-0.1367 4.6691,0.3641 6.8517,1.2786 -2.623,-2.3322 -5.717,-3.6509 -9.3603,-3.7572z" class="fil4"/>
 </g>
 <g id="Layer-10">
  <metadata id="CorelCorpID_9Corel-Layer"/>
  <path d="M37.4791 32.4285c-4.0922,-6.9657 -0.7607,-14.676 4.8046,-19.7462l0.0088 0c5.5653,5.0702 8.8968,12.7805 4.8046,19.7462 2.0747,-5.2349 0.1518,-13.4517 -4.8134,-16.4891 -4.9378,3.2087 -6.9286,11.129 -4.8046,16.4891z" class="fil4"/>
 </g>
</svg>